# Stylized low-poly portrait bust generated for the portfolio
# Features: swept black hair, warm round face, black blazer, white shirt, hands holding lapels
mtllib cyril-stylized-portrait.mtl
o Cyril_Stylized_Portrait
v 0.88000 0.05000 0.05000
v 0.88000 1.75000 0.05000
v 0.85794 0.05000 0.12343
v 0.85794 1.75000 0.12343
v 0.79285 0.05000 0.19318
v 0.79285 1.75000 0.19318
v 0.68801 0.05000 0.25575
v 0.68801 1.75000 0.25575
v 0.54867 0.05000 0.30800
v 0.54867 1.75000 0.30800
v 0.38182 0.05000 0.34732
v 0.38182 1.75000 0.34732
v 0.19582 0.05000 0.37173
v 0.19582 1.75000 0.37173
v 0.00000 0.05000 0.38000
v 0.00000 1.75000 0.38000
v -0.19582 0.05000 0.37173
v -0.19582 1.75000 0.37173
v -0.38182 0.05000 0.34732
v -0.38182 1.75000 0.34732
v -0.54867 0.05000 0.30800
v -0.54867 1.75000 0.30800
v -0.68801 0.05000 0.25575
v -0.68801 1.75000 0.25575
v -0.79285 0.05000 0.19318
v -0.79285 1.75000 0.19318
v -0.85794 0.05000 0.12343
v -0.85794 1.75000 0.12343
v -0.88000 0.05000 0.05000
v -0.88000 1.75000 0.05000
v -0.85794 0.05000 -0.02343
v -0.85794 1.75000 -0.02343
v -0.79285 0.05000 -0.09318
v -0.79285 1.75000 -0.09318
v -0.68801 0.05000 -0.15575
v -0.68801 1.75000 -0.15575
v -0.54867 0.05000 -0.20800
v -0.54867 1.75000 -0.20800
v -0.38182 0.05000 -0.24732
v -0.38182 1.75000 -0.24732
v -0.19582 0.05000 -0.27173
v -0.19582 1.75000 -0.27173
v -0.00000 0.05000 -0.28000
v -0.00000 1.75000 -0.28000
v 0.19582 0.05000 -0.27173
v 0.19582 1.75000 -0.27173
v 0.38182 0.05000 -0.24732
v 0.38182 1.75000 -0.24732
v 0.54867 0.05000 -0.20800
v 0.54867 1.75000 -0.20800
v 0.68801 0.05000 -0.15575
v 0.68801 1.75000 -0.15575
v 0.79285 0.05000 -0.09318
v 0.79285 1.75000 -0.09318
v 0.85794 0.05000 -0.02343
v 0.85794 1.75000 -0.02343
v -0.31000 0.00000 -0.38000
v 0.31000 0.00000 -0.38000
v 0.16000 1.65000 -0.38000
v -0.16000 1.65000 -0.38000
v -0.31000 0.00000 -0.32000
v 0.31000 0.00000 -0.32000
v 0.16000 1.65000 -0.32000
v -0.16000 1.65000 -0.32000
v -0.72000 0.00000 -0.44000
v -0.18000 1.72000 -0.47000
v -0.02000 0.00000 -0.48000
v -0.72000 0.00000 -0.36000
v -0.18000 1.72000 -0.39000
v -0.02000 0.00000 -0.40000
v 0.72000 0.00000 -0.44000
v 0.18000 1.72000 -0.47000
v 0.02000 0.00000 -0.48000
v 0.72000 0.00000 -0.36000
v 0.18000 1.72000 -0.39000
v 0.02000 0.00000 -0.40000
v 0.36000 1.03000 -0.52000
v 0.72000 1.03000 -0.52000
v 0.72000 1.09000 -0.52000
v 0.36000 1.09000 -0.52000
v 0.36000 1.03000 -0.48000
v 0.72000 1.03000 -0.48000
v 0.72000 1.09000 -0.48000
v 0.36000 1.09000 -0.48000
v 0.23000 1.57000 -0.02000
v 0.23000 1.99000 -0.02000
v 0.22068 1.57000 0.03353
v 0.22068 1.99000 0.03353
v 0.19349 1.57000 0.08272
v 0.19349 1.99000 0.08272
v 0.15062 1.57000 0.12359
v 0.15062 1.99000 0.12359
v 0.09555 1.57000 0.15283
v 0.09555 1.99000 0.15283
v 0.03273 1.57000 0.16807
v 0.03273 1.99000 0.16807
v -0.03273 1.57000 0.16807
v -0.03273 1.99000 0.16807
v -0.09555 1.57000 0.15283
v -0.09555 1.99000 0.15283
v -0.15062 1.57000 0.12359
v -0.15062 1.99000 0.12359
v -0.19349 1.57000 0.08272
v -0.19349 1.99000 0.08272
v -0.22068 1.57000 0.03353
v -0.22068 1.99000 0.03353
v -0.23000 1.57000 -0.02000
v -0.23000 1.99000 -0.02000
v -0.22068 1.57000 -0.07353
v -0.22068 1.99000 -0.07353
v -0.19349 1.57000 -0.12272
v -0.19349 1.99000 -0.12272
v -0.15062 1.57000 -0.16359
v -0.15062 1.99000 -0.16359
v -0.09555 1.57000 -0.19283
v -0.09555 1.99000 -0.19283
v -0.03273 1.57000 -0.20807
v -0.03273 1.99000 -0.20807
v 0.03273 1.57000 -0.20807
v 0.03273 1.99000 -0.20807
v 0.09555 1.57000 -0.19283
v 0.09555 1.99000 -0.19283
v 0.15062 1.57000 -0.16359
v 0.15062 1.99000 -0.16359
v 0.19349 1.57000 -0.12272
v 0.19349 1.99000 -0.12272
v 0.22068 1.57000 -0.07353
v 0.22068 1.99000 -0.07353
v 0.00000 3.08000 -0.05000
v 0.00000 3.08000 -0.05000
v 0.00000 3.08000 -0.05000
v 0.00000 3.08000 -0.05000
v 0.00000 3.08000 -0.05000
v 0.00000 3.08000 -0.05000
v 0.00000 3.08000 -0.05000
v 0.00000 3.08000 -0.05000
v 0.00000 3.08000 -0.05000
v 0.00000 3.08000 -0.05000
v 0.00000 3.08000 -0.05000
v 0.00000 3.08000 -0.05000
v 0.00000 3.08000 -0.05000
v 0.00000 3.08000 -0.05000
v 0.00000 3.08000 -0.05000
v 0.00000 3.08000 -0.05000
v 0.00000 3.08000 -0.05000
v 0.00000 3.08000 -0.05000
v 0.00000 3.08000 -0.05000
v 0.00000 3.08000 -0.05000
v 0.00000 3.08000 -0.05000
v 0.00000 3.08000 -0.05000
v 0.00000 3.08000 -0.05000
v 0.00000 3.08000 -0.05000
v 0.00000 3.08000 -0.05000
v 0.00000 3.08000 -0.05000
v 0.00000 3.08000 -0.05000
v 0.00000 3.08000 -0.05000
v 0.11126 3.06420 -0.05000
v 0.10847 3.06420 -0.03019
v 0.10024 3.06420 -0.01138
v 0.08699 3.06420 0.00550
v 0.06937 3.06420 0.01959
v 0.04827 3.06420 0.03019
v 0.02476 3.06420 0.03678
v 0.00000 3.06420 0.03901
v -0.02476 3.06420 0.03678
v -0.04827 3.06420 0.03019
v -0.06937 3.06420 0.01959
v -0.08699 3.06420 0.00550
v -0.10024 3.06420 -0.01138
v -0.10847 3.06420 -0.03019
v -0.11126 3.06420 -0.05000
v -0.10847 3.06420 -0.06981
v -0.10024 3.06420 -0.08862
v -0.08699 3.06420 -0.10550
v -0.06937 3.06420 -0.11959
v -0.04827 3.06420 -0.13019
v -0.02476 3.06420 -0.13678
v -0.00000 3.06420 -0.13901
v 0.02476 3.06420 -0.13678
v 0.04827 3.06420 -0.13019
v 0.06937 3.06420 -0.11959
v 0.08699 3.06420 -0.10550
v 0.10024 3.06420 -0.08862
v 0.10847 3.06420 -0.06981
v 0.21694 3.01761 -0.05000
v 0.21150 3.01761 -0.01138
v 0.19546 3.01761 0.02530
v 0.16961 3.01761 0.05821
v 0.13526 3.01761 0.08569
v 0.09413 3.01761 0.10637
v 0.04827 3.01761 0.11920
v 0.00000 3.01761 0.12355
v -0.04827 3.01761 0.11920
v -0.09413 3.01761 0.10637
v -0.13526 3.01761 0.08569
v -0.16961 3.01761 0.05821
v -0.19546 3.01761 0.02530
v -0.21150 3.01761 -0.01138
v -0.21694 3.01761 -0.05000
v -0.21150 3.01761 -0.08862
v -0.19546 3.01761 -0.12530
v -0.16961 3.01761 -0.15821
v -0.13526 3.01761 -0.18569
v -0.09413 3.01761 -0.20637
v -0.04827 3.01761 -0.21920
v -0.00000 3.01761 -0.22355
v 0.04827 3.01761 -0.21920
v 0.09413 3.01761 -0.20637
v 0.13526 3.01761 -0.18569
v 0.16961 3.01761 -0.15821
v 0.19546 3.01761 -0.12530
v 0.21150 3.01761 -0.08862
v 0.31174 2.94255 -0.05000
v 0.30393 2.94255 0.00550
v 0.28087 2.94255 0.05821
v 0.24373 2.94255 0.10550
v 0.19437 2.94255 0.14499
v 0.13526 2.94255 0.17470
v 0.06937 2.94255 0.19314
v 0.00000 2.94255 0.19940
v -0.06937 2.94255 0.19314
v -0.13526 2.94255 0.17470
v -0.19437 2.94255 0.14499
v -0.24373 2.94255 0.10550
v -0.28087 2.94255 0.05821
v -0.30393 2.94255 0.00550
v -0.31174 2.94255 -0.05000
v -0.30393 2.94255 -0.10550
v -0.28087 2.94255 -0.15821
v -0.24373 2.94255 -0.20550
v -0.19437 2.94255 -0.24499
v -0.13526 2.94255 -0.27470
v -0.06937 2.94255 -0.29314
v -0.00000 2.94255 -0.29940
v 0.06937 2.94255 -0.29314
v 0.13526 2.94255 -0.27470
v 0.19437 2.94255 -0.24499
v 0.24373 2.94255 -0.20550
v 0.28087 2.94255 -0.15821
v 0.30393 2.94255 -0.10550
v 0.39092 2.84280 -0.05000
v 0.38111 2.84280 0.01959
v 0.35220 2.84280 0.08569
v 0.30563 2.84280 0.14499
v 0.24373 2.84280 0.19450
v 0.16961 2.84280 0.23176
v 0.08699 2.84280 0.25489
v 0.00000 2.84280 0.26273
v -0.08699 2.84280 0.25489
v -0.16961 2.84280 0.23176
v -0.24373 2.84280 0.19450
v -0.30563 2.84280 0.14499
v -0.35220 2.84280 0.08569
v -0.38111 2.84280 0.01959
v -0.39092 2.84280 -0.05000
v -0.38111 2.84280 -0.11959
v -0.35220 2.84280 -0.18569
v -0.30563 2.84280 -0.24499
v -0.24373 2.84280 -0.29450
v -0.16961 2.84280 -0.33176
v -0.08699 2.84280 -0.35489
v -0.00000 2.84280 -0.36273
v 0.08699 2.84280 -0.35489
v 0.16961 2.84280 -0.33176
v 0.24373 2.84280 -0.29450
v 0.30563 2.84280 -0.24499
v 0.35220 2.84280 -0.18569
v 0.38111 2.84280 -0.11959
v 0.45048 2.72335 -0.05000
v 0.43919 2.72335 0.03019
v 0.40587 2.72335 0.10637
v 0.35220 2.72335 0.17470
v 0.28087 2.72335 0.23176
v 0.19546 2.72335 0.27470
v 0.10024 2.72335 0.30135
v 0.00000 2.72335 0.31039
v -0.10024 2.72335 0.30135
v -0.19546 2.72335 0.27470
v -0.28087 2.72335 0.23176
v -0.35220 2.72335 0.17470
v -0.40587 2.72335 0.10637
v -0.43919 2.72335 0.03019
v -0.45048 2.72335 -0.05000
v -0.43919 2.72335 -0.13019
v -0.40587 2.72335 -0.20637
v -0.35220 2.72335 -0.27470
v -0.28087 2.72335 -0.33176
v -0.19546 2.72335 -0.37470
v -0.10024 2.72335 -0.40135
v -0.00000 2.72335 -0.41039
v 0.10024 2.72335 -0.40135
v 0.19546 2.72335 -0.37470
v 0.28087 2.72335 -0.33176
v 0.35220 2.72335 -0.27470
v 0.40587 2.72335 -0.20637
v 0.43919 2.72335 -0.13019
v 0.48746 2.59019 -0.05000
v 0.47524 2.59019 0.03678
v 0.43919 2.59019 0.11920
v 0.38111 2.59019 0.19314
v 0.30393 2.59019 0.25489
v 0.21150 2.59019 0.30135
v 0.10847 2.59019 0.33019
v 0.00000 2.59019 0.33997
v -0.10847 2.59019 0.33019
v -0.21150 2.59019 0.30135
v -0.30393 2.59019 0.25489
v -0.38111 2.59019 0.19314
v -0.43919 2.59019 0.11920
v -0.47524 2.59019 0.03678
v -0.48746 2.59019 -0.05000
v -0.47524 2.59019 -0.13678
v -0.43919 2.59019 -0.21920
v -0.38111 2.59019 -0.29314
v -0.30393 2.59019 -0.35489
v -0.21150 2.59019 -0.40135
v -0.10847 2.59019 -0.43019
v -0.00000 2.59019 -0.43997
v 0.10847 2.59019 -0.43019
v 0.21150 2.59019 -0.40135
v 0.30393 2.59019 -0.35489
v 0.38111 2.59019 -0.29314
v 0.43919 2.59019 -0.21920
v 0.47524 2.59019 -0.13678
v 0.50000 2.45000 -0.05000
v 0.48746 2.45000 0.03901
v 0.45048 2.45000 0.12355
v 0.39092 2.45000 0.19940
v 0.31174 2.45000 0.26273
v 0.21694 2.45000 0.31039
v 0.11126 2.45000 0.33997
v 0.00000 2.45000 0.35000
v -0.11126 2.45000 0.33997
v -0.21694 2.45000 0.31039
v -0.31174 2.45000 0.26273
v -0.39092 2.45000 0.19940
v -0.45048 2.45000 0.12355
v -0.48746 2.45000 0.03901
v -0.50000 2.45000 -0.05000
v -0.48746 2.45000 -0.13901
v -0.45048 2.45000 -0.22355
v -0.39092 2.45000 -0.29940
v -0.31174 2.45000 -0.36273
v -0.21694 2.45000 -0.41039
v -0.11126 2.45000 -0.43997
v -0.00000 2.45000 -0.45000
v 0.11126 2.45000 -0.43997
v 0.21694 2.45000 -0.41039
v 0.31174 2.45000 -0.36273
v 0.39092 2.45000 -0.29940
v 0.45048 2.45000 -0.22355
v 0.48746 2.45000 -0.13901
v 0.48746 2.30981 -0.05000
v 0.47524 2.30981 0.03678
v 0.43919 2.30981 0.11920
v 0.38111 2.30981 0.19314
v 0.30393 2.30981 0.25489
v 0.21150 2.30981 0.30135
v 0.10847 2.30981 0.33019
v 0.00000 2.30981 0.33997
v -0.10847 2.30981 0.33019
v -0.21150 2.30981 0.30135
v -0.30393 2.30981 0.25489
v -0.38111 2.30981 0.19314
v -0.43919 2.30981 0.11920
v -0.47524 2.30981 0.03678
v -0.48746 2.30981 -0.05000
v -0.47524 2.30981 -0.13678
v -0.43919 2.30981 -0.21920
v -0.38111 2.30981 -0.29314
v -0.30393 2.30981 -0.35489
v -0.21150 2.30981 -0.40135
v -0.10847 2.30981 -0.43019
v -0.00000 2.30981 -0.43997
v 0.10847 2.30981 -0.43019
v 0.21150 2.30981 -0.40135
v 0.30393 2.30981 -0.35489
v 0.38111 2.30981 -0.29314
v 0.43919 2.30981 -0.21920
v 0.47524 2.30981 -0.13678
v 0.45048 2.17665 -0.05000
v 0.43919 2.17665 0.03019
v 0.40587 2.17665 0.10637
v 0.35220 2.17665 0.17470
v 0.28087 2.17665 0.23176
v 0.19546 2.17665 0.27470
v 0.10024 2.17665 0.30135
v 0.00000 2.17665 0.31039
v -0.10024 2.17665 0.30135
v -0.19546 2.17665 0.27470
v -0.28087 2.17665 0.23176
v -0.35220 2.17665 0.17470
v -0.40587 2.17665 0.10637
v -0.43919 2.17665 0.03019
v -0.45048 2.17665 -0.05000
v -0.43919 2.17665 -0.13019
v -0.40587 2.17665 -0.20637
v -0.35220 2.17665 -0.27470
v -0.28087 2.17665 -0.33176
v -0.19546 2.17665 -0.37470
v -0.10024 2.17665 -0.40135
v -0.00000 2.17665 -0.41039
v 0.10024 2.17665 -0.40135
v 0.19546 2.17665 -0.37470
v 0.28087 2.17665 -0.33176
v 0.35220 2.17665 -0.27470
v 0.40587 2.17665 -0.20637
v 0.43919 2.17665 -0.13019
v 0.39092 2.05720 -0.05000
v 0.38111 2.05720 0.01959
v 0.35220 2.05720 0.08569
v 0.30563 2.05720 0.14499
v 0.24373 2.05720 0.19450
v 0.16961 2.05720 0.23176
v 0.08699 2.05720 0.25489
v 0.00000 2.05720 0.26273
v -0.08699 2.05720 0.25489
v -0.16961 2.05720 0.23176
v -0.24373 2.05720 0.19450
v -0.30563 2.05720 0.14499
v -0.35220 2.05720 0.08569
v -0.38111 2.05720 0.01959
v -0.39092 2.05720 -0.05000
v -0.38111 2.05720 -0.11959
v -0.35220 2.05720 -0.18569
v -0.30563 2.05720 -0.24499
v -0.24373 2.05720 -0.29450
v -0.16961 2.05720 -0.33176
v -0.08699 2.05720 -0.35489
v -0.00000 2.05720 -0.36273
v 0.08699 2.05720 -0.35489
v 0.16961 2.05720 -0.33176
v 0.24373 2.05720 -0.29450
v 0.30563 2.05720 -0.24499
v 0.35220 2.05720 -0.18569
v 0.38111 2.05720 -0.11959
v 0.31174 1.95745 -0.05000
v 0.30393 1.95745 0.00550
v 0.28087 1.95745 0.05821
v 0.24373 1.95745 0.10550
v 0.19437 1.95745 0.14499
v 0.13526 1.95745 0.17470
v 0.06937 1.95745 0.19314
v 0.00000 1.95745 0.19940
v -0.06937 1.95745 0.19314
v -0.13526 1.95745 0.17470
v -0.19437 1.95745 0.14499
v -0.24373 1.95745 0.10550
v -0.28087 1.95745 0.05821
v -0.30393 1.95745 0.00550
v -0.31174 1.95745 -0.05000
v -0.30393 1.95745 -0.10550
v -0.28087 1.95745 -0.15821
v -0.24373 1.95745 -0.20550
v -0.19437 1.95745 -0.24499
v -0.13526 1.95745 -0.27470
v -0.06937 1.95745 -0.29314
v -0.00000 1.95745 -0.29940
v 0.06937 1.95745 -0.29314
v 0.13526 1.95745 -0.27470
v 0.19437 1.95745 -0.24499
v 0.24373 1.95745 -0.20550
v 0.28087 1.95745 -0.15821
v 0.30393 1.95745 -0.10550
v 0.21694 1.88239 -0.05000
v 0.21150 1.88239 -0.01138
v 0.19546 1.88239 0.02530
v 0.16961 1.88239 0.05821
v 0.13526 1.88239 0.08569
v 0.09413 1.88239 0.10637
v 0.04827 1.88239 0.11920
v 0.00000 1.88239 0.12355
v -0.04827 1.88239 0.11920
v -0.09413 1.88239 0.10637
v -0.13526 1.88239 0.08569
v -0.16961 1.88239 0.05821
v -0.19546 1.88239 0.02530
v -0.21150 1.88239 -0.01138
v -0.21694 1.88239 -0.05000
v -0.21150 1.88239 -0.08862
v -0.19546 1.88239 -0.12530
v -0.16961 1.88239 -0.15821
v -0.13526 1.88239 -0.18569
v -0.09413 1.88239 -0.20637
v -0.04827 1.88239 -0.21920
v -0.00000 1.88239 -0.22355
v 0.04827 1.88239 -0.21920
v 0.09413 1.88239 -0.20637
v 0.13526 1.88239 -0.18569
v 0.16961 1.88239 -0.15821
v 0.19546 1.88239 -0.12530
v 0.21150 1.88239 -0.08862
v 0.11126 1.83580 -0.05000
v 0.10847 1.83580 -0.03019
v 0.10024 1.83580 -0.01138
v 0.08699 1.83580 0.00550
v 0.06937 1.83580 0.01959
v 0.04827 1.83580 0.03019
v 0.02476 1.83580 0.03678
v 0.00000 1.83580 0.03901
v -0.02476 1.83580 0.03678
v -0.04827 1.83580 0.03019
v -0.06937 1.83580 0.01959
v -0.08699 1.83580 0.00550
v -0.10024 1.83580 -0.01138
v -0.10847 1.83580 -0.03019
v -0.11126 1.83580 -0.05000
v -0.10847 1.83580 -0.06981
v -0.10024 1.83580 -0.08862
v -0.08699 1.83580 -0.10550
v -0.06937 1.83580 -0.11959
v -0.04827 1.83580 -0.13019
v -0.02476 1.83580 -0.13678
v -0.00000 1.83580 -0.13901
v 0.02476 1.83580 -0.13678
v 0.04827 1.83580 -0.13019
v 0.06937 1.83580 -0.11959
v 0.08699 1.83580 -0.10550
v 0.10024 1.83580 -0.08862
v 0.10847 1.83580 -0.06981
v 0.00000 1.82000 -0.05000
v 0.00000 1.82000 -0.05000
v 0.00000 1.82000 -0.05000
v 0.00000 1.82000 -0.05000
v 0.00000 1.82000 -0.05000
v 0.00000 1.82000 -0.05000
v 0.00000 1.82000 -0.05000
v 0.00000 1.82000 -0.05000
v -0.00000 1.82000 -0.05000
v -0.00000 1.82000 -0.05000
v -0.00000 1.82000 -0.05000
v -0.00000 1.82000 -0.05000
v -0.00000 1.82000 -0.05000
v -0.00000 1.82000 -0.05000
v -0.00000 1.82000 -0.05000
v -0.00000 1.82000 -0.05000
v -0.00000 1.82000 -0.05000
v -0.00000 1.82000 -0.05000
v -0.00000 1.82000 -0.05000
v -0.00000 1.82000 -0.05000
v -0.00000 1.82000 -0.05000
v -0.00000 1.82000 -0.05000
v 0.00000 1.82000 -0.05000
v 0.00000 1.82000 -0.05000
v 0.00000 1.82000 -0.05000
v 0.00000 1.82000 -0.05000
v 0.00000 1.82000 -0.05000
v 0.00000 1.82000 -0.05000
v -0.50000 2.62000 -0.03000
v -0.50000 2.62000 -0.03000
v -0.50000 2.62000 -0.03000
v -0.50000 2.62000 -0.03000
v -0.50000 2.62000 -0.03000
v -0.50000 2.62000 -0.03000
v -0.50000 2.62000 -0.03000
v -0.50000 2.62000 -0.03000
v -0.50000 2.62000 -0.03000
v -0.50000 2.62000 -0.03000
v -0.50000 2.62000 -0.03000
v -0.50000 2.62000 -0.03000
v -0.50000 2.62000 -0.03000
v -0.50000 2.62000 -0.03000
v -0.46556 2.60630 -0.03000
v -0.46897 2.60630 -0.01838
v -0.47853 2.60630 -0.00906
v -0.49234 2.60630 -0.00388
v -0.50766 2.60630 -0.00388
v -0.52147 2.60630 -0.00906
v -0.53103 2.60630 -0.01838
v -0.53444 2.60630 -0.03000
v -0.53103 2.60630 -0.04162
v -0.52147 2.60630 -0.05094
v -0.50766 2.60630 -0.05612
v -0.49234 2.60630 -0.05612
v -0.47853 2.60630 -0.05094
v -0.46897 2.60630 -0.04162
v -0.43636 2.56728 -0.03000
v -0.44266 2.56728 -0.00852
v -0.46032 2.56728 0.00870
v -0.48584 2.56728 0.01826
v -0.51416 2.56728 0.01826
v -0.53968 2.56728 0.00870
v -0.55734 2.56728 -0.00852
v -0.56364 2.56728 -0.03000
v -0.55734 2.56728 -0.05148
v -0.53968 2.56728 -0.06870
v -0.51416 2.56728 -0.07826
v -0.48584 2.56728 -0.07826
v -0.46032 2.56728 -0.06870
v -0.44266 2.56728 -0.05148
v -0.41685 2.50888 -0.03000
v -0.42509 2.50888 -0.00194
v -0.44816 2.50888 0.02056
v -0.48150 2.50888 0.03305
v -0.51850 2.50888 0.03305
v -0.55184 2.50888 0.02056
v -0.57491 2.50888 -0.00194
v -0.58315 2.50888 -0.03000
v -0.57491 2.50888 -0.05806
v -0.55184 2.50888 -0.08056
v -0.51850 2.50888 -0.09305
v -0.48150 2.50888 -0.09305
v -0.44816 2.50888 -0.08056
v -0.42509 2.50888 -0.05806
v -0.41000 2.44000 -0.03000
v -0.41891 2.44000 0.00037
v -0.44389 2.44000 0.02473
v -0.47997 2.44000 0.03824
v -0.52003 2.44000 0.03824
v -0.55611 2.44000 0.02473
v -0.58109 2.44000 0.00037
v -0.59000 2.44000 -0.03000
v -0.58109 2.44000 -0.06037
v -0.55611 2.44000 -0.08473
v -0.52003 2.44000 -0.09824
v -0.47997 2.44000 -0.09824
v -0.44389 2.44000 -0.08473
v -0.41891 2.44000 -0.06037
v -0.41685 2.37112 -0.03000
v -0.42509 2.37112 -0.00194
v -0.44816 2.37112 0.02056
v -0.48150 2.37112 0.03305
v -0.51850 2.37112 0.03305
v -0.55184 2.37112 0.02056
v -0.57491 2.37112 -0.00194
v -0.58315 2.37112 -0.03000
v -0.57491 2.37112 -0.05806
v -0.55184 2.37112 -0.08056
v -0.51850 2.37112 -0.09305
v -0.48150 2.37112 -0.09305
v -0.44816 2.37112 -0.08056
v -0.42509 2.37112 -0.05806
v -0.43636 2.31272 -0.03000
v -0.44266 2.31272 -0.00852
v -0.46032 2.31272 0.00870
v -0.48584 2.31272 0.01826
v -0.51416 2.31272 0.01826
v -0.53968 2.31272 0.00870
v -0.55734 2.31272 -0.00852
v -0.56364 2.31272 -0.03000
v -0.55734 2.31272 -0.05148
v -0.53968 2.31272 -0.06870
v -0.51416 2.31272 -0.07826
v -0.48584 2.31272 -0.07826
v -0.46032 2.31272 -0.06870
v -0.44266 2.31272 -0.05148
v -0.46556 2.27370 -0.03000
v -0.46897 2.27370 -0.01838
v -0.47853 2.27370 -0.00906
v -0.49234 2.27370 -0.00388
v -0.50766 2.27370 -0.00388
v -0.52147 2.27370 -0.00906
v -0.53103 2.27370 -0.01838
v -0.53444 2.27370 -0.03000
v -0.53103 2.27370 -0.04162
v -0.52147 2.27370 -0.05094
v -0.50766 2.27370 -0.05612
v -0.49234 2.27370 -0.05612
v -0.47853 2.27370 -0.05094
v -0.46897 2.27370 -0.04162
v -0.50000 2.26000 -0.03000
v -0.50000 2.26000 -0.03000
v -0.50000 2.26000 -0.03000
v -0.50000 2.26000 -0.03000
v -0.50000 2.26000 -0.03000
v -0.50000 2.26000 -0.03000
v -0.50000 2.26000 -0.03000
v -0.50000 2.26000 -0.03000
v -0.50000 2.26000 -0.03000
v -0.50000 2.26000 -0.03000
v -0.50000 2.26000 -0.03000
v -0.50000 2.26000 -0.03000
v -0.50000 2.26000 -0.03000
v -0.50000 2.26000 -0.03000
v 0.50000 2.62000 -0.03000
v 0.50000 2.62000 -0.03000
v 0.50000 2.62000 -0.03000
v 0.50000 2.62000 -0.03000
v 0.50000 2.62000 -0.03000
v 0.50000 2.62000 -0.03000
v 0.50000 2.62000 -0.03000
v 0.50000 2.62000 -0.03000
v 0.50000 2.62000 -0.03000
v 0.50000 2.62000 -0.03000
v 0.50000 2.62000 -0.03000
v 0.50000 2.62000 -0.03000
v 0.50000 2.62000 -0.03000
v 0.50000 2.62000 -0.03000
v 0.53444 2.60630 -0.03000
v 0.53103 2.60630 -0.01838
v 0.52147 2.60630 -0.00906
v 0.50766 2.60630 -0.00388
v 0.49234 2.60630 -0.00388
v 0.47853 2.60630 -0.00906
v 0.46897 2.60630 -0.01838
v 0.46556 2.60630 -0.03000
v 0.46897 2.60630 -0.04162
v 0.47853 2.60630 -0.05094
v 0.49234 2.60630 -0.05612
v 0.50766 2.60630 -0.05612
v 0.52147 2.60630 -0.05094
v 0.53103 2.60630 -0.04162
v 0.56364 2.56728 -0.03000
v 0.55734 2.56728 -0.00852
v 0.53968 2.56728 0.00870
v 0.51416 2.56728 0.01826
v 0.48584 2.56728 0.01826
v 0.46032 2.56728 0.00870
v 0.44266 2.56728 -0.00852
v 0.43636 2.56728 -0.03000
v 0.44266 2.56728 -0.05148
v 0.46032 2.56728 -0.06870
v 0.48584 2.56728 -0.07826
v 0.51416 2.56728 -0.07826
v 0.53968 2.56728 -0.06870
v 0.55734 2.56728 -0.05148
v 0.58315 2.50888 -0.03000
v 0.57491 2.50888 -0.00194
v 0.55184 2.50888 0.02056
v 0.51850 2.50888 0.03305
v 0.48150 2.50888 0.03305
v 0.44816 2.50888 0.02056
v 0.42509 2.50888 -0.00194
v 0.41685 2.50888 -0.03000
v 0.42509 2.50888 -0.05806
v 0.44816 2.50888 -0.08056
v 0.48150 2.50888 -0.09305
v 0.51850 2.50888 -0.09305
v 0.55184 2.50888 -0.08056
v 0.57491 2.50888 -0.05806
v 0.59000 2.44000 -0.03000
v 0.58109 2.44000 0.00037
v 0.55611 2.44000 0.02473
v 0.52003 2.44000 0.03824
v 0.47997 2.44000 0.03824
v 0.44389 2.44000 0.02473
v 0.41891 2.44000 0.00037
v 0.41000 2.44000 -0.03000
v 0.41891 2.44000 -0.06037
v 0.44389 2.44000 -0.08473
v 0.47997 2.44000 -0.09824
v 0.52003 2.44000 -0.09824
v 0.55611 2.44000 -0.08473
v 0.58109 2.44000 -0.06037
v 0.58315 2.37112 -0.03000
v 0.57491 2.37112 -0.00194
v 0.55184 2.37112 0.02056
v 0.51850 2.37112 0.03305
v 0.48150 2.37112 0.03305
v 0.44816 2.37112 0.02056
v 0.42509 2.37112 -0.00194
v 0.41685 2.37112 -0.03000
v 0.42509 2.37112 -0.05806
v 0.44816 2.37112 -0.08056
v 0.48150 2.37112 -0.09305
v 0.51850 2.37112 -0.09305
v 0.55184 2.37112 -0.08056
v 0.57491 2.37112 -0.05806
v 0.56364 2.31272 -0.03000
v 0.55734 2.31272 -0.00852
v 0.53968 2.31272 0.00870
v 0.51416 2.31272 0.01826
v 0.48584 2.31272 0.01826
v 0.46032 2.31272 0.00870
v 0.44266 2.31272 -0.00852
v 0.43636 2.31272 -0.03000
v 0.44266 2.31272 -0.05148
v 0.46032 2.31272 -0.06870
v 0.48584 2.31272 -0.07826
v 0.51416 2.31272 -0.07826
v 0.53968 2.31272 -0.06870
v 0.55734 2.31272 -0.05148
v 0.53444 2.27370 -0.03000
v 0.53103 2.27370 -0.01838
v 0.52147 2.27370 -0.00906
v 0.50766 2.27370 -0.00388
v 0.49234 2.27370 -0.00388
v 0.47853 2.27370 -0.00906
v 0.46897 2.27370 -0.01838
v 0.46556 2.27370 -0.03000
v 0.46897 2.27370 -0.04162
v 0.47853 2.27370 -0.05094
v 0.49234 2.27370 -0.05612
v 0.50766 2.27370 -0.05612
v 0.52147 2.27370 -0.05094
v 0.53103 2.27370 -0.04162
v 0.50000 2.26000 -0.03000
v 0.50000 2.26000 -0.03000
v 0.50000 2.26000 -0.03000
v 0.50000 2.26000 -0.03000
v 0.50000 2.26000 -0.03000
v 0.50000 2.26000 -0.03000
v 0.50000 2.26000 -0.03000
v 0.50000 2.26000 -0.03000
v 0.50000 2.26000 -0.03000
v 0.50000 2.26000 -0.03000
v 0.50000 2.26000 -0.03000
v 0.50000 2.26000 -0.03000
v 0.50000 2.26000 -0.03000
v 0.50000 2.26000 -0.03000
v -0.03000 3.20000 -0.03000
v -0.03000 3.20000 -0.03000
v -0.03000 3.20000 -0.03000
v -0.03000 3.20000 -0.03000
v -0.03000 3.20000 -0.03000
v -0.03000 3.20000 -0.03000
v -0.03000 3.20000 -0.03000
v -0.03000 3.20000 -0.03000
v -0.03000 3.20000 -0.03000
v -0.03000 3.20000 -0.03000
v -0.03000 3.20000 -0.03000
v -0.03000 3.20000 -0.03000
v -0.03000 3.20000 -0.03000
v -0.03000 3.20000 -0.03000
v -0.03000 3.20000 -0.03000
v -0.03000 3.20000 -0.03000
v -0.03000 3.20000 -0.03000
v -0.03000 3.20000 -0.03000
v -0.03000 3.20000 -0.03000
v -0.03000 3.20000 -0.03000
v -0.03000 3.20000 -0.03000
v -0.03000 3.20000 -0.03000
v -0.03000 3.20000 -0.03000
v -0.03000 3.20000 -0.03000
v -0.03000 3.20000 -0.03000
v -0.03000 3.20000 -0.03000
v -0.03000 3.20000 -0.03000
v -0.03000 3.20000 -0.03000
v 0.11249 3.19114 -0.03000
v 0.10892 3.19114 -0.00475
v 0.09838 3.19114 0.01923
v 0.08140 3.19114 0.04074
v 0.05884 3.19114 0.05871
v 0.03182 3.19114 0.07223
v 0.00171 3.19114 0.08062
v -0.03000 3.19114 0.08347
v -0.06171 3.19114 0.08062
v -0.09182 3.19114 0.07223
v -0.11884 3.19114 0.05871
v -0.14140 3.19114 0.04074
v -0.15838 3.19114 0.01923
v -0.16892 3.19114 -0.00475
v -0.17249 3.19114 -0.03000
v -0.16892 3.19114 -0.05525
v -0.15838 3.19114 -0.07923
v -0.14140 3.19114 -0.10074
v -0.11884 3.19114 -0.11871
v -0.09182 3.19114 -0.13223
v -0.06171 3.19114 -0.14062
v -0.03000 3.19114 -0.14347
v 0.00171 3.19114 -0.14062
v 0.03182 3.19114 -0.13223
v 0.05884 3.19114 -0.11871
v 0.08140 3.19114 -0.10074
v 0.09838 3.19114 -0.07923
v 0.10892 3.19114 -0.05525
v 0.24488 3.16519 -0.03000
v 0.23799 3.16519 0.01871
v 0.21766 3.16519 0.06497
v 0.18491 3.16519 0.10647
v 0.14139 3.16519 0.14113
v 0.08927 3.16519 0.16721
v 0.03117 3.16519 0.18340
v -0.03000 3.16519 0.18889
v -0.09117 3.16519 0.18340
v -0.14927 3.16519 0.16721
v -0.20139 3.16519 0.14113
v -0.24491 3.16519 0.10647
v -0.27766 3.16519 0.06497
v -0.29799 3.16519 0.01871
v -0.30488 3.16519 -0.03000
v -0.29799 3.16519 -0.07871
v -0.27766 3.16519 -0.12497
v -0.24491 3.16519 -0.16647
v -0.20139 3.16519 -0.20113
v -0.14927 3.16519 -0.22721
v -0.09117 3.16519 -0.24340
v -0.03000 3.16519 -0.24889
v 0.03117 3.16519 -0.24340
v 0.08927 3.16519 -0.22721
v 0.14139 3.16519 -0.20113
v 0.18491 3.16519 -0.16647
v 0.21766 3.16519 -0.12497
v 0.23799 3.16519 -0.07871
v 0.35779 3.12398 -0.03000
v 0.34807 3.12398 0.03871
v 0.31939 3.12398 0.10398
v 0.27319 3.12398 0.16253
v 0.21178 3.12398 0.21143
v 0.13825 3.12398 0.24821
v 0.05629 3.12398 0.27105
v -0.03000 3.12398 0.27879
v -0.11629 3.12398 0.27105
v -0.19825 3.12398 0.24821
v -0.27178 3.12398 0.21143
v -0.33319 3.12398 0.16253
v -0.37939 3.12398 0.10398
v -0.40807 3.12398 0.03871
v -0.41779 3.12398 -0.03000
v -0.40807 3.12398 -0.09871
v -0.37939 3.12398 -0.16398
v -0.33319 3.12398 -0.22253
v -0.27178 3.12398 -0.27143
v -0.19825 3.12398 -0.30821
v -0.11629 3.12398 -0.33105
v -0.03000 3.12398 -0.33879
v 0.05629 3.12398 -0.33105
v 0.13825 3.12398 -0.30821
v 0.21178 3.12398 -0.27143
v 0.27319 3.12398 -0.22253
v 0.31939 3.12398 -0.16398
v 0.34807 3.12398 -0.09871
v 0.44321 3.07044 -0.03000
v 0.43134 3.07044 0.05385
v 0.39634 3.07044 0.13349
v 0.33997 3.07044 0.20494
v 0.26504 3.07044 0.26460
v 0.17532 3.07044 0.30950
v 0.07530 3.07044 0.33736
v -0.03000 3.07044 0.34681
v -0.13530 3.07044 0.33736
v -0.23532 3.07044 0.30950
v -0.32504 3.07044 0.26460
v -0.39997 3.07044 0.20494
v -0.45634 3.07044 0.13349
v -0.49134 3.07044 0.05385
v -0.50321 3.07044 -0.03000
v -0.49134 3.07044 -0.11385
v -0.45634 3.07044 -0.19349
v -0.39997 3.07044 -0.26494
v -0.32504 3.07044 -0.32460
v -0.23532 3.07044 -0.36950
v -0.13530 3.07044 -0.39736
v -0.03000 3.07044 -0.40681
v 0.07530 3.07044 -0.39736
v 0.17532 3.07044 -0.36950
v 0.26504 3.07044 -0.32460
v 0.33997 3.07044 -0.26494
v 0.39634 3.07044 -0.19349
v 0.43134 3.07044 -0.11385
v 0.49508 3.00836 -0.03000
v 0.48191 3.00836 0.06304
v 0.44308 3.00836 0.15142
v 0.38052 3.00836 0.23069
v 0.29738 3.00836 0.29690
v 0.19782 3.00836 0.34671
v 0.08684 3.00836 0.37764
v -0.03000 3.00836 0.38812
v -0.14684 3.00836 0.37764
v -0.25782 3.00836 0.34671
v -0.35738 3.00836 0.29690
v -0.44052 3.00836 0.23069
v -0.50308 3.00836 0.15142
v -0.54191 3.00836 0.06304
v -0.55508 3.00836 -0.03000
v -0.54191 3.00836 -0.12304
v -0.50308 3.00836 -0.21142
v -0.44052 3.00836 -0.29069
v -0.35738 3.00836 -0.35690
v -0.25782 3.00836 -0.40671
v -0.14684 3.00836 -0.43764
v -0.03000 3.00836 -0.44812
v 0.08684 3.00836 -0.43764
v 0.19782 3.00836 -0.40671
v 0.29738 3.00836 -0.35690
v 0.38052 3.00836 -0.29069
v 0.44308 3.00836 -0.21142
v 0.48191 3.00836 -0.12304
v 0.50973 2.94215 -0.03000
v 0.49620 2.94215 0.06564
v 0.45628 2.94215 0.15648
v 0.39198 2.94215 0.23797
v 0.30652 2.94215 0.30602
v 0.20418 2.94215 0.35723
v 0.09010 2.94215 0.38901
v -0.03000 2.94215 0.39979
v -0.15010 2.94215 0.38901
v -0.26418 2.94215 0.35723
v -0.36652 2.94215 0.30602
v -0.45198 2.94215 0.23797
v -0.51628 2.94215 0.15648
v -0.55620 2.94215 0.06564
v -0.56973 2.94215 -0.03000
v -0.55620 2.94215 -0.12564
v -0.51628 2.94215 -0.21648
v -0.45198 2.94215 -0.29797
v -0.36652 2.94215 -0.36602
v -0.26418 2.94215 -0.41723
v -0.15010 2.94215 -0.44901
v -0.03000 2.94215 -0.45979
v 0.09010 2.94215 -0.44901
v 0.20418 2.94215 -0.41723
v 0.30652 2.94215 -0.36602
v 0.39198 2.94215 -0.29797
v 0.45628 2.94215 -0.21648
v 0.49620 2.94215 -0.12564
v 0.48613 2.87649 -0.03000
v 0.47319 2.87649 0.06145
v 0.43502 2.87649 0.14832
v 0.37353 2.87649 0.22625
v 0.29180 2.87649 0.29133
v 0.19394 2.87649 0.34029
v 0.08485 2.87649 0.37069
v -0.03000 2.87649 0.38099
v -0.14485 2.87649 0.37069
v -0.25394 2.87649 0.34029
v -0.35180 2.87649 0.29133
v -0.43353 2.87649 0.22625
v -0.49502 2.87649 0.14832
v -0.53319 2.87649 0.06145
v -0.54613 2.87649 -0.03000
v -0.53319 2.87649 -0.12145
v -0.49502 2.87649 -0.20832
v -0.43353 2.87649 -0.28625
v -0.35180 2.87649 -0.35133
v -0.25394 2.87649 -0.40029
v -0.14485 2.87649 -0.43069
v -0.03000 2.87649 -0.44099
v 0.08485 2.87649 -0.43069
v 0.19394 2.87649 -0.40029
v 0.29180 2.87649 -0.35133
v 0.37353 2.87649 -0.28625
v 0.43502 2.87649 -0.20832
v 0.47319 2.87649 -0.12145
v 0.42594 2.81604 -0.03000
v 0.41451 2.81604 0.05079
v 0.38079 2.81604 0.12753
v 0.32647 2.81604 0.19636
v 0.25427 2.81604 0.25385
v 0.16782 2.81604 0.29711
v 0.07146 2.81604 0.32396
v -0.03000 2.81604 0.33306
v -0.13146 2.81604 0.32396
v -0.22782 2.81604 0.29711
v -0.31427 2.81604 0.25385
v -0.38647 2.81604 0.19636
v -0.44079 2.81604 0.12753
v -0.47451 2.81604 0.05079
v -0.48594 2.81604 -0.03000
v -0.47451 2.81604 -0.11079
v -0.44079 2.81604 -0.18753
v -0.38647 2.81604 -0.25636
v -0.31427 2.81604 -0.31385
v -0.22782 2.81604 -0.35711
v -0.13146 2.81604 -0.38396
v -0.03000 2.81604 -0.39306
v 0.07146 2.81604 -0.38396
v 0.16782 2.81604 -0.35711
v 0.25427 2.81604 -0.31385
v 0.32647 2.81604 -0.25636
v 0.38079 2.81604 -0.18753
v 0.41451 2.81604 -0.11079
v -0.13000 3.22000 -0.25000
v -0.13000 3.22000 -0.25000
v -0.13000 3.22000 -0.25000
v -0.13000 3.22000 -0.25000
v -0.13000 3.22000 -0.25000
v -0.13000 3.22000 -0.25000
v -0.13000 3.22000 -0.25000
v -0.13000 3.22000 -0.25000
v -0.13000 3.22000 -0.25000
v -0.13000 3.22000 -0.25000
v -0.13000 3.22000 -0.25000
v -0.13000 3.22000 -0.25000
v -0.13000 3.22000 -0.25000
v -0.13000 3.22000 -0.25000
v -0.13000 3.22000 -0.25000
v -0.13000 3.22000 -0.25000
v -0.13000 3.22000 -0.25000
v -0.13000 3.22000 -0.25000
v -0.13000 3.22000 -0.25000
v -0.13000 3.22000 -0.25000
v 0.00011 3.20934 -0.25000
v -0.00626 3.20934 -0.23463
v -0.02474 3.20934 -0.22076
v -0.05352 3.20934 -0.20975
v -0.08979 3.20934 -0.20269
v -0.13000 3.20934 -0.20025
v -0.17021 3.20934 -0.20269
v -0.20648 3.20934 -0.20975
v -0.23526 3.20934 -0.22076
v -0.25374 3.20934 -0.23463
v -0.26011 3.20934 -0.25000
v -0.25374 3.20934 -0.26537
v -0.23526 3.20934 -0.27924
v -0.20648 3.20934 -0.29025
v -0.17021 3.20934 -0.29731
v -0.13000 3.20934 -0.29975
v -0.08979 3.20934 -0.29731
v -0.05352 3.20934 -0.29025
v -0.02474 3.20934 -0.27924
v -0.00626 3.20934 -0.26537
v 0.11042 3.17899 -0.25000
v 0.09865 3.17899 -0.22159
v 0.06450 3.17899 -0.19597
v 0.01131 3.17899 -0.17563
v -0.05571 3.17899 -0.16258
v -0.13000 3.17899 -0.15808
v -0.20429 3.17899 -0.16258
v -0.27131 3.17899 -0.17563
v -0.32450 3.17899 -0.19597
v -0.35865 3.17899 -0.22159
v -0.37042 3.17899 -0.25000
v -0.35865 3.17899 -0.27841
v -0.32450 3.17899 -0.30403
v -0.27131 3.17899 -0.32437
v -0.20429 3.17899 -0.33742
v -0.13000 3.17899 -0.34192
v -0.05571 3.17899 -0.33742
v 0.01131 3.17899 -0.32437
v 0.06450 3.17899 -0.30403
v 0.09865 3.17899 -0.27841
v 0.18412 3.13358 -0.25000
v 0.16874 3.13358 -0.21289
v 0.12413 3.13358 -0.17940
v 0.05463 3.13358 -0.15283
v -0.03293 3.13358 -0.13577
v -0.13000 3.13358 -0.12990
v -0.22707 3.13358 -0.13577
v -0.31463 3.13358 -0.15283
v -0.38413 3.13358 -0.17940
v -0.42874 3.13358 -0.21289
v -0.44412 3.13358 -0.25000
v -0.42874 3.13358 -0.28711
v -0.38413 3.13358 -0.32060
v -0.31463 3.13358 -0.34717
v -0.22707 3.13358 -0.36423
v -0.13000 3.13358 -0.37010
v -0.03293 3.13358 -0.36423
v 0.05463 3.13358 -0.34717
v 0.12413 3.13358 -0.32060
v 0.16874 3.13358 -0.28711
v 0.21000 3.08000 -0.25000
v 0.19336 3.08000 -0.20983
v 0.14507 3.08000 -0.17359
v 0.06985 3.08000 -0.14483
v -0.02493 3.08000 -0.12636
v -0.13000 3.08000 -0.12000
v -0.23507 3.08000 -0.12636
v -0.32985 3.08000 -0.14483
v -0.40507 3.08000 -0.17359
v -0.45336 3.08000 -0.20983
v -0.47000 3.08000 -0.25000
v -0.45336 3.08000 -0.29017
v -0.40507 3.08000 -0.32641
v -0.32985 3.08000 -0.35517
v -0.23507 3.08000 -0.37364
v -0.13000 3.08000 -0.38000
v -0.02493 3.08000 -0.37364
v 0.06985 3.08000 -0.35517
v 0.14507 3.08000 -0.32641
v 0.19336 3.08000 -0.29017
v 0.18412 3.02642 -0.25000
v 0.16874 3.02642 -0.21289
v 0.12413 3.02642 -0.17940
v 0.05463 3.02642 -0.15283
v -0.03293 3.02642 -0.13577
v -0.13000 3.02642 -0.12990
v -0.22707 3.02642 -0.13577
v -0.31463 3.02642 -0.15283
v -0.38413 3.02642 -0.17940
v -0.42874 3.02642 -0.21289
v -0.44412 3.02642 -0.25000
v -0.42874 3.02642 -0.28711
v -0.38413 3.02642 -0.32060
v -0.31463 3.02642 -0.34717
v -0.22707 3.02642 -0.36423
v -0.13000 3.02642 -0.37010
v -0.03293 3.02642 -0.36423
v 0.05463 3.02642 -0.34717
v 0.12413 3.02642 -0.32060
v 0.16874 3.02642 -0.28711
v 0.11042 2.98101 -0.25000
v 0.09865 2.98101 -0.22159
v 0.06450 2.98101 -0.19597
v 0.01131 2.98101 -0.17563
v -0.05571 2.98101 -0.16258
v -0.13000 2.98101 -0.15808
v -0.20429 2.98101 -0.16258
v -0.27131 2.98101 -0.17563
v -0.32450 2.98101 -0.19597
v -0.35865 2.98101 -0.22159
v -0.37042 2.98101 -0.25000
v -0.35865 2.98101 -0.27841
v -0.32450 2.98101 -0.30403
v -0.27131 2.98101 -0.32437
v -0.20429 2.98101 -0.33742
v -0.13000 2.98101 -0.34192
v -0.05571 2.98101 -0.33742
v 0.01131 2.98101 -0.32437
v 0.06450 2.98101 -0.30403
v 0.09865 2.98101 -0.27841
v 0.00011 2.95066 -0.25000
v -0.00626 2.95066 -0.23463
v -0.02474 2.95066 -0.22076
v -0.05352 2.95066 -0.20975
v -0.08979 2.95066 -0.20269
v -0.13000 2.95066 -0.20025
v -0.17021 2.95066 -0.20269
v -0.20648 2.95066 -0.20975
v -0.23526 2.95066 -0.22076
v -0.25374 2.95066 -0.23463
v -0.26011 2.95066 -0.25000
v -0.25374 2.95066 -0.26537
v -0.23526 2.95066 -0.27924
v -0.20648 2.95066 -0.29025
v -0.17021 2.95066 -0.29731
v -0.13000 2.95066 -0.29975
v -0.08979 2.95066 -0.29731
v -0.05352 2.95066 -0.29025
v -0.02474 2.95066 -0.27924
v -0.00626 2.95066 -0.26537
v -0.13000 2.94000 -0.25000
v -0.13000 2.94000 -0.25000
v -0.13000 2.94000 -0.25000
v -0.13000 2.94000 -0.25000
v -0.13000 2.94000 -0.25000
v -0.13000 2.94000 -0.25000
v -0.13000 2.94000 -0.25000
v -0.13000 2.94000 -0.25000
v -0.13000 2.94000 -0.25000
v -0.13000 2.94000 -0.25000
v -0.13000 2.94000 -0.25000
v -0.13000 2.94000 -0.25000
v -0.13000 2.94000 -0.25000
v -0.13000 2.94000 -0.25000
v -0.13000 2.94000 -0.25000
v -0.13000 2.94000 -0.25000
v -0.13000 2.94000 -0.25000
v -0.13000 2.94000 -0.25000
v -0.13000 2.94000 -0.25000
v -0.13000 2.94000 -0.25000
v -0.53000 2.55000 -0.20000
v -0.43000 2.55000 -0.20000
v -0.43000 2.88000 -0.20000
v -0.53000 2.88000 -0.20000
v -0.53000 2.55000 0.16000
v -0.43000 2.55000 0.16000
v -0.43000 2.88000 0.16000
v -0.53000 2.88000 0.16000
v 0.43000 2.55000 -0.20000
v 0.53000 2.55000 -0.20000
v 0.53000 2.88000 -0.20000
v 0.43000 2.88000 -0.20000
v 0.43000 2.55000 0.16000
v 0.53000 2.55000 0.16000
v 0.53000 2.88000 0.16000
v 0.43000 2.88000 0.16000
v -0.19000 2.57800 -0.43000
v -0.19000 2.57800 -0.43000
v -0.19000 2.57800 -0.43000
v -0.19000 2.57800 -0.43000
v -0.19000 2.57800 -0.43000
v -0.19000 2.57800 -0.43000
v -0.19000 2.57800 -0.43000
v -0.19000 2.57800 -0.43000
v -0.19000 2.57800 -0.43000
v -0.19000 2.57800 -0.43000
v -0.19000 2.57800 -0.43000
v -0.19000 2.57800 -0.43000
v -0.19000 2.57800 -0.43000
v -0.19000 2.57800 -0.43000
v -0.16250 2.57291 -0.43000
v -0.16522 2.57291 -0.42610
v -0.17285 2.57291 -0.42296
v -0.18388 2.57291 -0.42123
v -0.19612 2.57291 -0.42123
v -0.20715 2.57291 -0.42296
v -0.21478 2.57291 -0.42610
v -0.21750 2.57291 -0.43000
v -0.21478 2.57291 -0.43390
v -0.20715 2.57291 -0.43704
v -0.19612 2.57291 -0.43877
v -0.18388 2.57291 -0.43877
v -0.17285 2.57291 -0.43704
v -0.16522 2.57291 -0.43390
v -0.14237 2.55900 -0.43000
v -0.14709 2.55900 -0.42324
v -0.16030 2.55900 -0.41781
v -0.17940 2.55900 -0.41480
v -0.20060 2.55900 -0.41480
v -0.21970 2.55900 -0.41781
v -0.23291 2.55900 -0.42324
v -0.23763 2.55900 -0.43000
v -0.23291 2.55900 -0.43676
v -0.21970 2.55900 -0.44219
v -0.20060 2.55900 -0.44520
v -0.17940 2.55900 -0.44520
v -0.16030 2.55900 -0.44219
v -0.14709 2.55900 -0.43676
v -0.13500 2.54000 -0.43000
v -0.14045 2.54000 -0.42219
v -0.15571 2.54000 -0.41593
v -0.17776 2.54000 -0.41245
v -0.20224 2.54000 -0.41245
v -0.22429 2.54000 -0.41593
v -0.23955 2.54000 -0.42219
v -0.24500 2.54000 -0.43000
v -0.23955 2.54000 -0.43781
v -0.22429 2.54000 -0.44407
v -0.20224 2.54000 -0.44755
v -0.17776 2.54000 -0.44755
v -0.15571 2.54000 -0.44407
v -0.14045 2.54000 -0.43781
v -0.14237 2.52100 -0.43000
v -0.14709 2.52100 -0.42324
v -0.16030 2.52100 -0.41781
v -0.17940 2.52100 -0.41480
v -0.20060 2.52100 -0.41480
v -0.21970 2.52100 -0.41781
v -0.23291 2.52100 -0.42324
v -0.23763 2.52100 -0.43000
v -0.23291 2.52100 -0.43676
v -0.21970 2.52100 -0.44219
v -0.20060 2.52100 -0.44520
v -0.17940 2.52100 -0.44520
v -0.16030 2.52100 -0.44219
v -0.14709 2.52100 -0.43676
v -0.16250 2.50709 -0.43000
v -0.16522 2.50709 -0.42610
v -0.17285 2.50709 -0.42296
v -0.18388 2.50709 -0.42123
v -0.19612 2.50709 -0.42123
v -0.20715 2.50709 -0.42296
v -0.21478 2.50709 -0.42610
v -0.21750 2.50709 -0.43000
v -0.21478 2.50709 -0.43390
v -0.20715 2.50709 -0.43704
v -0.19612 2.50709 -0.43877
v -0.18388 2.50709 -0.43877
v -0.17285 2.50709 -0.43704
v -0.16522 2.50709 -0.43390
v -0.19000 2.50200 -0.43000
v -0.19000 2.50200 -0.43000
v -0.19000 2.50200 -0.43000
v -0.19000 2.50200 -0.43000
v -0.19000 2.50200 -0.43000
v -0.19000 2.50200 -0.43000
v -0.19000 2.50200 -0.43000
v -0.19000 2.50200 -0.43000
v -0.19000 2.50200 -0.43000
v -0.19000 2.50200 -0.43000
v -0.19000 2.50200 -0.43000
v -0.19000 2.50200 -0.43000
v -0.19000 2.50200 -0.43000
v -0.19000 2.50200 -0.43000
v 0.19000 2.57800 -0.43000
v 0.19000 2.57800 -0.43000
v 0.19000 2.57800 -0.43000
v 0.19000 2.57800 -0.43000
v 0.19000 2.57800 -0.43000
v 0.19000 2.57800 -0.43000
v 0.19000 2.57800 -0.43000
v 0.19000 2.57800 -0.43000
v 0.19000 2.57800 -0.43000
v 0.19000 2.57800 -0.43000
v 0.19000 2.57800 -0.43000
v 0.19000 2.57800 -0.43000
v 0.19000 2.57800 -0.43000
v 0.19000 2.57800 -0.43000
v 0.21750 2.57291 -0.43000
v 0.21478 2.57291 -0.42610
v 0.20715 2.57291 -0.42296
v 0.19612 2.57291 -0.42123
v 0.18388 2.57291 -0.42123
v 0.17285 2.57291 -0.42296
v 0.16522 2.57291 -0.42610
v 0.16250 2.57291 -0.43000
v 0.16522 2.57291 -0.43390
v 0.17285 2.57291 -0.43704
v 0.18388 2.57291 -0.43877
v 0.19612 2.57291 -0.43877
v 0.20715 2.57291 -0.43704
v 0.21478 2.57291 -0.43390
v 0.23763 2.55900 -0.43000
v 0.23291 2.55900 -0.42324
v 0.21970 2.55900 -0.41781
v 0.20060 2.55900 -0.41480
v 0.17940 2.55900 -0.41480
v 0.16030 2.55900 -0.41781
v 0.14709 2.55900 -0.42324
v 0.14237 2.55900 -0.43000
v 0.14709 2.55900 -0.43676
v 0.16030 2.55900 -0.44219
v 0.17940 2.55900 -0.44520
v 0.20060 2.55900 -0.44520
v 0.21970 2.55900 -0.44219
v 0.23291 2.55900 -0.43676
v 0.24500 2.54000 -0.43000
v 0.23955 2.54000 -0.42219
v 0.22429 2.54000 -0.41593
v 0.20224 2.54000 -0.41245
v 0.17776 2.54000 -0.41245
v 0.15571 2.54000 -0.41593
v 0.14045 2.54000 -0.42219
v 0.13500 2.54000 -0.43000
v 0.14045 2.54000 -0.43781
v 0.15571 2.54000 -0.44407
v 0.17776 2.54000 -0.44755
v 0.20224 2.54000 -0.44755
v 0.22429 2.54000 -0.44407
v 0.23955 2.54000 -0.43781
v 0.23763 2.52100 -0.43000
v 0.23291 2.52100 -0.42324
v 0.21970 2.52100 -0.41781
v 0.20060 2.52100 -0.41480
v 0.17940 2.52100 -0.41480
v 0.16030 2.52100 -0.41781
v 0.14709 2.52100 -0.42324
v 0.14237 2.52100 -0.43000
v 0.14709 2.52100 -0.43676
v 0.16030 2.52100 -0.44219
v 0.17940 2.52100 -0.44520
v 0.20060 2.52100 -0.44520
v 0.21970 2.52100 -0.44219
v 0.23291 2.52100 -0.43676
v 0.21750 2.50709 -0.43000
v 0.21478 2.50709 -0.42610
v 0.20715 2.50709 -0.42296
v 0.19612 2.50709 -0.42123
v 0.18388 2.50709 -0.42123
v 0.17285 2.50709 -0.42296
v 0.16522 2.50709 -0.42610
v 0.16250 2.50709 -0.43000
v 0.16522 2.50709 -0.43390
v 0.17285 2.50709 -0.43704
v 0.18388 2.50709 -0.43877
v 0.19612 2.50709 -0.43877
v 0.20715 2.50709 -0.43704
v 0.21478 2.50709 -0.43390
v 0.19000 2.50200 -0.43000
v 0.19000 2.50200 -0.43000
v 0.19000 2.50200 -0.43000
v 0.19000 2.50200 -0.43000
v 0.19000 2.50200 -0.43000
v 0.19000 2.50200 -0.43000
v 0.19000 2.50200 -0.43000
v 0.19000 2.50200 -0.43000
v 0.19000 2.50200 -0.43000
v 0.19000 2.50200 -0.43000
v 0.19000 2.50200 -0.43000
v 0.19000 2.50200 -0.43000
v 0.19000 2.50200 -0.43000
v 0.19000 2.50200 -0.43000
v -0.31000 2.66000 -0.45000
v -0.08000 2.66000 -0.45000
v -0.08000 2.69000 -0.45000
v -0.31000 2.69000 -0.45000
v -0.31000 2.66000 -0.42000
v -0.08000 2.66000 -0.42000
v -0.08000 2.69000 -0.42000
v -0.31000 2.69000 -0.42000
v 0.08000 2.66000 -0.45000
v 0.31000 2.66000 -0.45000
v 0.31000 2.69000 -0.45000
v 0.08000 2.69000 -0.45000
v 0.08000 2.66000 -0.42000
v 0.31000 2.66000 -0.42000
v 0.31000 2.69000 -0.42000
v 0.08000 2.69000 -0.42000
v 0.00000 2.52000 -0.45000
v 0.00000 2.52000 -0.45000
v 0.00000 2.52000 -0.45000
v 0.00000 2.52000 -0.45000
v 0.00000 2.52000 -0.45000
v 0.00000 2.52000 -0.45000
v 0.00000 2.52000 -0.45000
v 0.00000 2.52000 -0.45000
v 0.00000 2.52000 -0.45000
v 0.00000 2.52000 -0.45000
v 0.00000 2.52000 -0.45000
v 0.00000 2.52000 -0.45000
v 0.00000 2.52000 -0.45000
v 0.00000 2.52000 -0.45000
v 0.02105 2.51087 -0.45000
v 0.01896 2.51087 -0.44087
v 0.01312 2.51087 -0.43354
v 0.00468 2.51087 -0.42948
v -0.00468 2.51087 -0.42948
v -0.01312 2.51087 -0.43354
v -0.01896 2.51087 -0.44087
v -0.02105 2.51087 -0.45000
v -0.01896 2.51087 -0.45913
v -0.01312 2.51087 -0.46646
v -0.00468 2.51087 -0.47052
v 0.00468 2.51087 -0.47052
v 0.01312 2.51087 -0.46646
v 0.01896 2.51087 -0.45913
v 0.03889 2.48485 -0.45000
v 0.03504 2.48485 -0.43313
v 0.02425 2.48485 -0.41959
v 0.00865 2.48485 -0.41208
v -0.00865 2.48485 -0.41208
v -0.02425 2.48485 -0.41959
v -0.03504 2.48485 -0.43313
v -0.03889 2.48485 -0.45000
v -0.03504 2.48485 -0.46687
v -0.02425 2.48485 -0.48041
v -0.00865 2.48485 -0.48792
v 0.00865 2.48485 -0.48792
v 0.02425 2.48485 -0.48041
v 0.03504 2.48485 -0.46687
v 0.05081 2.44592 -0.45000
v 0.04578 2.44592 -0.42795
v 0.03168 2.44592 -0.41027
v 0.01131 2.44592 -0.40046
v -0.01131 2.44592 -0.40046
v -0.03168 2.44592 -0.41027
v -0.04578 2.44592 -0.42795
v -0.05081 2.44592 -0.45000
v -0.04578 2.44592 -0.47205
v -0.03168 2.44592 -0.48973
v -0.01131 2.44592 -0.49954
v 0.01131 2.44592 -0.49954
v 0.03168 2.44592 -0.48973
v 0.04578 2.44592 -0.47205
v 0.05500 2.40000 -0.45000
v 0.04955 2.40000 -0.42614
v 0.03429 2.40000 -0.40700
v 0.01224 2.40000 -0.39638
v -0.01224 2.40000 -0.39638
v -0.03429 2.40000 -0.40700
v -0.04955 2.40000 -0.42614
v -0.05500 2.40000 -0.45000
v -0.04955 2.40000 -0.47386
v -0.03429 2.40000 -0.49300
v -0.01224 2.40000 -0.50362
v 0.01224 2.40000 -0.50362
v 0.03429 2.40000 -0.49300
v 0.04955 2.40000 -0.47386
v 0.05081 2.35408 -0.45000
v 0.04578 2.35408 -0.42795
v 0.03168 2.35408 -0.41027
v 0.01131 2.35408 -0.40046
v -0.01131 2.35408 -0.40046
v -0.03168 2.35408 -0.41027
v -0.04578 2.35408 -0.42795
v -0.05081 2.35408 -0.45000
v -0.04578 2.35408 -0.47205
v -0.03168 2.35408 -0.48973
v -0.01131 2.35408 -0.49954
v 0.01131 2.35408 -0.49954
v 0.03168 2.35408 -0.48973
v 0.04578 2.35408 -0.47205
v 0.03889 2.31515 -0.45000
v 0.03504 2.31515 -0.43313
v 0.02425 2.31515 -0.41959
v 0.00865 2.31515 -0.41208
v -0.00865 2.31515 -0.41208
v -0.02425 2.31515 -0.41959
v -0.03504 2.31515 -0.43313
v -0.03889 2.31515 -0.45000
v -0.03504 2.31515 -0.46687
v -0.02425 2.31515 -0.48041
v -0.00865 2.31515 -0.48792
v 0.00865 2.31515 -0.48792
v 0.02425 2.31515 -0.48041
v 0.03504 2.31515 -0.46687
v 0.02105 2.28913 -0.45000
v 0.01896 2.28913 -0.44087
v 0.01312 2.28913 -0.43354
v 0.00468 2.28913 -0.42948
v -0.00468 2.28913 -0.42948
v -0.01312 2.28913 -0.43354
v -0.01896 2.28913 -0.44087
v -0.02105 2.28913 -0.45000
v -0.01896 2.28913 -0.45913
v -0.01312 2.28913 -0.46646
v -0.00468 2.28913 -0.47052
v 0.00468 2.28913 -0.47052
v 0.01312 2.28913 -0.46646
v 0.01896 2.28913 -0.45913
v 0.00000 2.28000 -0.45000
v 0.00000 2.28000 -0.45000
v 0.00000 2.28000 -0.45000
v 0.00000 2.28000 -0.45000
v -0.00000 2.28000 -0.45000
v -0.00000 2.28000 -0.45000
v -0.00000 2.28000 -0.45000
v -0.00000 2.28000 -0.45000
v -0.00000 2.28000 -0.45000
v -0.00000 2.28000 -0.45000
v -0.00000 2.28000 -0.45000
v 0.00000 2.28000 -0.45000
v 0.00000 2.28000 -0.45000
v 0.00000 2.28000 -0.45000
v 0.00000 2.28500 -0.44000
v 0.00000 2.28500 -0.44000
v 0.00000 2.28500 -0.44000
v 0.00000 2.28500 -0.44000
v 0.00000 2.28500 -0.44000
v 0.00000 2.28500 -0.44000
v 0.00000 2.28500 -0.44000
v 0.00000 2.28500 -0.44000
v 0.00000 2.28500 -0.44000
v 0.00000 2.28500 -0.44000
v 0.00000 2.28500 -0.44000
v 0.00000 2.28500 -0.44000
v 0.00000 2.28500 -0.44000
v 0.00000 2.28500 -0.44000
v 0.00000 2.28500 -0.44000
v 0.00000 2.28500 -0.44000
v 0.00000 2.28500 -0.44000
v 0.00000 2.28500 -0.44000
v 0.10000 2.27897 -0.44000
v 0.09397 2.27897 -0.43692
v 0.07660 2.27897 -0.43421
v 0.05000 2.27897 -0.43221
v 0.01736 2.27897 -0.43114
v -0.01736 2.27897 -0.43114
v -0.05000 2.27897 -0.43221
v -0.07660 2.27897 -0.43421
v -0.09397 2.27897 -0.43692
v -0.10000 2.27897 -0.44000
v -0.09397 2.27897 -0.44308
v -0.07660 2.27897 -0.44579
v -0.05000 2.27897 -0.44779
v -0.01736 2.27897 -0.44886
v 0.01736 2.27897 -0.44886
v 0.05000 2.27897 -0.44779
v 0.07660 2.27897 -0.44579
v 0.09397 2.27897 -0.44308
v 0.17321 2.26250 -0.44000
v 0.16276 2.26250 -0.43467
v 0.13268 2.26250 -0.42998
v 0.08660 2.26250 -0.42650
v 0.03008 2.26250 -0.42465
v -0.03008 2.26250 -0.42465
v -0.08660 2.26250 -0.42650
v -0.13268 2.26250 -0.42998
v -0.16276 2.26250 -0.43467
v -0.17321 2.26250 -0.44000
v -0.16276 2.26250 -0.44533
v -0.13268 2.26250 -0.45002
v -0.08660 2.26250 -0.45350
v -0.03008 2.26250 -0.45535
v 0.03008 2.26250 -0.45535
v 0.08660 2.26250 -0.45350
v 0.13268 2.26250 -0.45002
v 0.16276 2.26250 -0.44533
v 0.20000 2.24000 -0.44000
v 0.18794 2.24000 -0.43384
v 0.15321 2.24000 -0.42843
v 0.10000 2.24000 -0.42441
v 0.03473 2.24000 -0.42227
v -0.03473 2.24000 -0.42227
v -0.10000 2.24000 -0.42441
v -0.15321 2.24000 -0.42843
v -0.18794 2.24000 -0.43384
v -0.20000 2.24000 -0.44000
v -0.18794 2.24000 -0.44616
v -0.15321 2.24000 -0.45157
v -0.10000 2.24000 -0.45559
v -0.03473 2.24000 -0.45773
v 0.03473 2.24000 -0.45773
v 0.10000 2.24000 -0.45559
v 0.15321 2.24000 -0.45157
v 0.18794 2.24000 -0.44616
v 0.17321 2.21750 -0.44000
v 0.16276 2.21750 -0.43467
v 0.13268 2.21750 -0.42998
v 0.08660 2.21750 -0.42650
v 0.03008 2.21750 -0.42465
v -0.03008 2.21750 -0.42465
v -0.08660 2.21750 -0.42650
v -0.13268 2.21750 -0.42998
v -0.16276 2.21750 -0.43467
v -0.17321 2.21750 -0.44000
v -0.16276 2.21750 -0.44533
v -0.13268 2.21750 -0.45002
v -0.08660 2.21750 -0.45350
v -0.03008 2.21750 -0.45535
v 0.03008 2.21750 -0.45535
v 0.08660 2.21750 -0.45350
v 0.13268 2.21750 -0.45002
v 0.16276 2.21750 -0.44533
v 0.10000 2.20103 -0.44000
v 0.09397 2.20103 -0.43692
v 0.07660 2.20103 -0.43421
v 0.05000 2.20103 -0.43221
v 0.01736 2.20103 -0.43114
v -0.01736 2.20103 -0.43114
v -0.05000 2.20103 -0.43221
v -0.07660 2.20103 -0.43421
v -0.09397 2.20103 -0.43692
v -0.10000 2.20103 -0.44000
v -0.09397 2.20103 -0.44308
v -0.07660 2.20103 -0.44579
v -0.05000 2.20103 -0.44779
v -0.01736 2.20103 -0.44886
v 0.01736 2.20103 -0.44886
v 0.05000 2.20103 -0.44779
v 0.07660 2.20103 -0.44579
v 0.09397 2.20103 -0.44308
v 0.00000 2.19500 -0.44000
v 0.00000 2.19500 -0.44000
v 0.00000 2.19500 -0.44000
v 0.00000 2.19500 -0.44000
v 0.00000 2.19500 -0.44000
v -0.00000 2.19500 -0.44000
v -0.00000 2.19500 -0.44000
v -0.00000 2.19500 -0.44000
v -0.00000 2.19500 -0.44000
v -0.00000 2.19500 -0.44000
v -0.00000 2.19500 -0.44000
v -0.00000 2.19500 -0.44000
v -0.00000 2.19500 -0.44000
v -0.00000 2.19500 -0.44000
v 0.00000 2.19500 -0.44000
v 0.00000 2.19500 -0.44000
v 0.00000 2.19500 -0.44000
v 0.00000 2.19500 -0.44000
v -0.13000 2.25500 -0.46200
v 0.13000 2.25500 -0.46200
v 0.13000 2.28200 -0.46200
v -0.13000 2.28200 -0.46200
v -0.13000 2.25500 -0.44700
v 0.13000 2.25500 -0.44700
v 0.13000 2.28200 -0.44700
v -0.13000 2.28200 -0.44700
v -0.54000 0.72000 -0.62500
v -0.54000 0.72000 0.42500
v -0.54965 0.76788 -0.62500
v -0.54965 0.76788 0.42500
v -0.57743 0.80999 -0.62500
v -0.57743 0.80999 0.42500
v -0.62000 0.84124 -0.62500
v -0.62000 0.84124 0.42500
v -0.67222 0.85787 -0.62500
v -0.67222 0.85787 0.42500
v -0.72778 0.85787 -0.62500
v -0.72778 0.85787 0.42500
v -0.78000 0.84124 -0.62500
v -0.78000 0.84124 0.42500
v -0.82257 0.80999 -0.62500
v -0.82257 0.80999 0.42500
v -0.85035 0.76788 -0.62500
v -0.85035 0.76788 0.42500
v -0.86000 0.72000 -0.62500
v -0.86000 0.72000 0.42500
v -0.85035 0.67212 -0.62500
v -0.85035 0.67212 0.42500
v -0.82257 0.63001 -0.62500
v -0.82257 0.63001 0.42500
v -0.78000 0.59876 -0.62500
v -0.78000 0.59876 0.42500
v -0.72778 0.58213 -0.62500
v -0.72778 0.58213 0.42500
v -0.67222 0.58213 -0.62500
v -0.67222 0.58213 0.42500
v -0.62000 0.59876 -0.62500
v -0.62000 0.59876 0.42500
v -0.57743 0.63001 -0.62500
v -0.57743 0.63001 0.42500
v -0.54965 0.67212 -0.62500
v -0.54965 0.67212 0.42500
v 0.86000 0.72000 -0.62500
v 0.86000 0.72000 0.42500
v 0.85035 0.76788 -0.62500
v 0.85035 0.76788 0.42500
v 0.82257 0.80999 -0.62500
v 0.82257 0.80999 0.42500
v 0.78000 0.84124 -0.62500
v 0.78000 0.84124 0.42500
v 0.72778 0.85787 -0.62500
v 0.72778 0.85787 0.42500
v 0.67222 0.85787 -0.62500
v 0.67222 0.85787 0.42500
v 0.62000 0.84124 -0.62500
v 0.62000 0.84124 0.42500
v 0.57743 0.80999 -0.62500
v 0.57743 0.80999 0.42500
v 0.54965 0.76788 -0.62500
v 0.54965 0.76788 0.42500
v 0.54000 0.72000 -0.62500
v 0.54000 0.72000 0.42500
v 0.54965 0.67212 -0.62500
v 0.54965 0.67212 0.42500
v 0.57743 0.63001 -0.62500
v 0.57743 0.63001 0.42500
v 0.62000 0.59876 -0.62500
v 0.62000 0.59876 0.42500
v 0.67222 0.58213 -0.62500
v 0.67222 0.58213 0.42500
v 0.72778 0.58213 -0.62500
v 0.72778 0.58213 0.42500
v 0.78000 0.59876 -0.62500
v 0.78000 0.59876 0.42500
v 0.82257 0.63001 -0.62500
v 0.82257 0.63001 0.42500
v 0.85035 0.67212 -0.62500
v 0.85035 0.67212 0.42500
v -0.43000 0.94000 -0.57000
v -0.43000 0.94000 -0.57000
v -0.43000 0.94000 -0.57000
v -0.43000 0.94000 -0.57000
v -0.43000 0.94000 -0.57000
v -0.43000 0.94000 -0.57000
v -0.43000 0.94000 -0.57000
v -0.43000 0.94000 -0.57000
v -0.43000 0.94000 -0.57000
v -0.43000 0.94000 -0.57000
v -0.43000 0.94000 -0.57000
v -0.43000 0.94000 -0.57000
v -0.43000 0.94000 -0.57000
v -0.43000 0.94000 -0.57000
v -0.43000 0.94000 -0.57000
v -0.43000 0.94000 -0.57000
v -0.35346 0.92706 -0.57000
v -0.35929 0.92706 -0.55243
v -0.37588 0.92706 -0.53753
v -0.40071 0.92706 -0.52757
v -0.43000 0.92706 -0.52408
v -0.45929 0.92706 -0.52757
v -0.48412 0.92706 -0.53753
v -0.50071 0.92706 -0.55243
v -0.50654 0.92706 -0.57000
v -0.50071 0.92706 -0.58757
v -0.48412 0.92706 -0.60247
v -0.45929 0.92706 -0.61243
v -0.43000 0.92706 -0.61592
v -0.40071 0.92706 -0.61243
v -0.37588 0.92706 -0.60247
v -0.35929 0.92706 -0.58757
v -0.28858 0.89021 -0.57000
v -0.29934 0.89021 -0.53753
v -0.33000 0.89021 -0.51000
v -0.37588 0.89021 -0.49161
v -0.43000 0.89021 -0.48515
v -0.48412 0.89021 -0.49161
v -0.53000 0.89021 -0.51000
v -0.56066 0.89021 -0.53753
v -0.57142 0.89021 -0.57000
v -0.56066 0.89021 -0.60247
v -0.53000 0.89021 -0.63000
v -0.48412 0.89021 -0.64839
v -0.43000 0.89021 -0.65485
v -0.37588 0.89021 -0.64839
v -0.33000 0.89021 -0.63000
v -0.29934 0.89021 -0.60247
v -0.24522 0.83506 -0.57000
v -0.25929 0.83506 -0.52757
v -0.29934 0.83506 -0.49161
v -0.35929 0.83506 -0.46757
v -0.43000 0.83506 -0.45913
v -0.50071 0.83506 -0.46757
v -0.56066 0.83506 -0.49161
v -0.60071 0.83506 -0.52757
v -0.61478 0.83506 -0.57000
v -0.60071 0.83506 -0.61243
v -0.56066 0.83506 -0.64839
v -0.50071 0.83506 -0.67243
v -0.43000 0.83506 -0.68087
v -0.35929 0.83506 -0.67243
v -0.29934 0.83506 -0.64839
v -0.25929 0.83506 -0.61243
v -0.23000 0.77000 -0.57000
v -0.24522 0.77000 -0.52408
v -0.28858 0.77000 -0.48515
v -0.35346 0.77000 -0.45913
v -0.43000 0.77000 -0.45000
v -0.50654 0.77000 -0.45913
v -0.57142 0.77000 -0.48515
v -0.61478 0.77000 -0.52408
v -0.63000 0.77000 -0.57000
v -0.61478 0.77000 -0.61592
v -0.57142 0.77000 -0.65485
v -0.50654 0.77000 -0.68087
v -0.43000 0.77000 -0.69000
v -0.35346 0.77000 -0.68087
v -0.28858 0.77000 -0.65485
v -0.24522 0.77000 -0.61592
v -0.24522 0.70494 -0.57000
v -0.25929 0.70494 -0.52757
v -0.29934 0.70494 -0.49161
v -0.35929 0.70494 -0.46757
v -0.43000 0.70494 -0.45913
v -0.50071 0.70494 -0.46757
v -0.56066 0.70494 -0.49161
v -0.60071 0.70494 -0.52757
v -0.61478 0.70494 -0.57000
v -0.60071 0.70494 -0.61243
v -0.56066 0.70494 -0.64839
v -0.50071 0.70494 -0.67243
v -0.43000 0.70494 -0.68087
v -0.35929 0.70494 -0.67243
v -0.29934 0.70494 -0.64839
v -0.25929 0.70494 -0.61243
v -0.28858 0.64979 -0.57000
v -0.29934 0.64979 -0.53753
v -0.33000 0.64979 -0.51000
v -0.37588 0.64979 -0.49161
v -0.43000 0.64979 -0.48515
v -0.48412 0.64979 -0.49161
v -0.53000 0.64979 -0.51000
v -0.56066 0.64979 -0.53753
v -0.57142 0.64979 -0.57000
v -0.56066 0.64979 -0.60247
v -0.53000 0.64979 -0.63000
v -0.48412 0.64979 -0.64839
v -0.43000 0.64979 -0.65485
v -0.37588 0.64979 -0.64839
v -0.33000 0.64979 -0.63000
v -0.29934 0.64979 -0.60247
v -0.35346 0.61294 -0.57000
v -0.35929 0.61294 -0.55243
v -0.37588 0.61294 -0.53753
v -0.40071 0.61294 -0.52757
v -0.43000 0.61294 -0.52408
v -0.45929 0.61294 -0.52757
v -0.48412 0.61294 -0.53753
v -0.50071 0.61294 -0.55243
v -0.50654 0.61294 -0.57000
v -0.50071 0.61294 -0.58757
v -0.48412 0.61294 -0.60247
v -0.45929 0.61294 -0.61243
v -0.43000 0.61294 -0.61592
v -0.40071 0.61294 -0.61243
v -0.37588 0.61294 -0.60247
v -0.35929 0.61294 -0.58757
v -0.43000 0.60000 -0.57000
v -0.43000 0.60000 -0.57000
v -0.43000 0.60000 -0.57000
v -0.43000 0.60000 -0.57000
v -0.43000 0.60000 -0.57000
v -0.43000 0.60000 -0.57000
v -0.43000 0.60000 -0.57000
v -0.43000 0.60000 -0.57000
v -0.43000 0.60000 -0.57000
v -0.43000 0.60000 -0.57000
v -0.43000 0.60000 -0.57000
v -0.43000 0.60000 -0.57000
v -0.43000 0.60000 -0.57000
v -0.43000 0.60000 -0.57000
v -0.43000 0.60000 -0.57000
v -0.43000 0.60000 -0.57000
v 0.43000 0.94000 -0.57000
v 0.43000 0.94000 -0.57000
v 0.43000 0.94000 -0.57000
v 0.43000 0.94000 -0.57000
v 0.43000 0.94000 -0.57000
v 0.43000 0.94000 -0.57000
v 0.43000 0.94000 -0.57000
v 0.43000 0.94000 -0.57000
v 0.43000 0.94000 -0.57000
v 0.43000 0.94000 -0.57000
v 0.43000 0.94000 -0.57000
v 0.43000 0.94000 -0.57000
v 0.43000 0.94000 -0.57000
v 0.43000 0.94000 -0.57000
v 0.43000 0.94000 -0.57000
v 0.43000 0.94000 -0.57000
v 0.50654 0.92706 -0.57000
v 0.50071 0.92706 -0.55243
v 0.48412 0.92706 -0.53753
v 0.45929 0.92706 -0.52757
v 0.43000 0.92706 -0.52408
v 0.40071 0.92706 -0.52757
v 0.37588 0.92706 -0.53753
v 0.35929 0.92706 -0.55243
v 0.35346 0.92706 -0.57000
v 0.35929 0.92706 -0.58757
v 0.37588 0.92706 -0.60247
v 0.40071 0.92706 -0.61243
v 0.43000 0.92706 -0.61592
v 0.45929 0.92706 -0.61243
v 0.48412 0.92706 -0.60247
v 0.50071 0.92706 -0.58757
v 0.57142 0.89021 -0.57000
v 0.56066 0.89021 -0.53753
v 0.53000 0.89021 -0.51000
v 0.48412 0.89021 -0.49161
v 0.43000 0.89021 -0.48515
v 0.37588 0.89021 -0.49161
v 0.33000 0.89021 -0.51000
v 0.29934 0.89021 -0.53753
v 0.28858 0.89021 -0.57000
v 0.29934 0.89021 -0.60247
v 0.33000 0.89021 -0.63000
v 0.37588 0.89021 -0.64839
v 0.43000 0.89021 -0.65485
v 0.48412 0.89021 -0.64839
v 0.53000 0.89021 -0.63000
v 0.56066 0.89021 -0.60247
v 0.61478 0.83506 -0.57000
v 0.60071 0.83506 -0.52757
v 0.56066 0.83506 -0.49161
v 0.50071 0.83506 -0.46757
v 0.43000 0.83506 -0.45913
v 0.35929 0.83506 -0.46757
v 0.29934 0.83506 -0.49161
v 0.25929 0.83506 -0.52757
v 0.24522 0.83506 -0.57000
v 0.25929 0.83506 -0.61243
v 0.29934 0.83506 -0.64839
v 0.35929 0.83506 -0.67243
v 0.43000 0.83506 -0.68087
v 0.50071 0.83506 -0.67243
v 0.56066 0.83506 -0.64839
v 0.60071 0.83506 -0.61243
v 0.63000 0.77000 -0.57000
v 0.61478 0.77000 -0.52408
v 0.57142 0.77000 -0.48515
v 0.50654 0.77000 -0.45913
v 0.43000 0.77000 -0.45000
v 0.35346 0.77000 -0.45913
v 0.28858 0.77000 -0.48515
v 0.24522 0.77000 -0.52408
v 0.23000 0.77000 -0.57000
v 0.24522 0.77000 -0.61592
v 0.28858 0.77000 -0.65485
v 0.35346 0.77000 -0.68087
v 0.43000 0.77000 -0.69000
v 0.50654 0.77000 -0.68087
v 0.57142 0.77000 -0.65485
v 0.61478 0.77000 -0.61592
v 0.61478 0.70494 -0.57000
v 0.60071 0.70494 -0.52757
v 0.56066 0.70494 -0.49161
v 0.50071 0.70494 -0.46757
v 0.43000 0.70494 -0.45913
v 0.35929 0.70494 -0.46757
v 0.29934 0.70494 -0.49161
v 0.25929 0.70494 -0.52757
v 0.24522 0.70494 -0.57000
v 0.25929 0.70494 -0.61243
v 0.29934 0.70494 -0.64839
v 0.35929 0.70494 -0.67243
v 0.43000 0.70494 -0.68087
v 0.50071 0.70494 -0.67243
v 0.56066 0.70494 -0.64839
v 0.60071 0.70494 -0.61243
v 0.57142 0.64979 -0.57000
v 0.56066 0.64979 -0.53753
v 0.53000 0.64979 -0.51000
v 0.48412 0.64979 -0.49161
v 0.43000 0.64979 -0.48515
v 0.37588 0.64979 -0.49161
v 0.33000 0.64979 -0.51000
v 0.29934 0.64979 -0.53753
v 0.28858 0.64979 -0.57000
v 0.29934 0.64979 -0.60247
v 0.33000 0.64979 -0.63000
v 0.37588 0.64979 -0.64839
v 0.43000 0.64979 -0.65485
v 0.48412 0.64979 -0.64839
v 0.53000 0.64979 -0.63000
v 0.56066 0.64979 -0.60247
v 0.50654 0.61294 -0.57000
v 0.50071 0.61294 -0.55243
v 0.48412 0.61294 -0.53753
v 0.45929 0.61294 -0.52757
v 0.43000 0.61294 -0.52408
v 0.40071 0.61294 -0.52757
v 0.37588 0.61294 -0.53753
v 0.35929 0.61294 -0.55243
v 0.35346 0.61294 -0.57000
v 0.35929 0.61294 -0.58757
v 0.37588 0.61294 -0.60247
v 0.40071 0.61294 -0.61243
v 0.43000 0.61294 -0.61592
v 0.45929 0.61294 -0.61243
v 0.48412 0.61294 -0.60247
v 0.50071 0.61294 -0.58757
v 0.43000 0.60000 -0.57000
v 0.43000 0.60000 -0.57000
v 0.43000 0.60000 -0.57000
v 0.43000 0.60000 -0.57000
v 0.43000 0.60000 -0.57000
v 0.43000 0.60000 -0.57000
v 0.43000 0.60000 -0.57000
v 0.43000 0.60000 -0.57000
v 0.43000 0.60000 -0.57000
v 0.43000 0.60000 -0.57000
v 0.43000 0.60000 -0.57000
v 0.43000 0.60000 -0.57000
v 0.43000 0.60000 -0.57000
v 0.43000 0.60000 -0.57000
v 0.43000 0.60000 -0.57000
v 0.43000 0.60000 -0.57000
v -0.27500 0.84000 -0.58000
v -0.27500 1.12000 -0.58000
v -0.27969 0.84000 -0.56500
v -0.27969 1.12000 -0.56500
v -0.29250 0.84000 -0.55402
v -0.29250 1.12000 -0.55402
v -0.31000 0.84000 -0.55000
v -0.31000 1.12000 -0.55000
v -0.32750 0.84000 -0.55402
v -0.32750 1.12000 -0.55402
v -0.34031 0.84000 -0.56500
v -0.34031 1.12000 -0.56500
v -0.34500 0.84000 -0.58000
v -0.34500 1.12000 -0.58000
v -0.34031 0.84000 -0.59500
v -0.34031 1.12000 -0.59500
v -0.32750 0.84000 -0.60598
v -0.32750 1.12000 -0.60598
v -0.31000 0.84000 -0.61000
v -0.31000 1.12000 -0.61000
v -0.29250 0.84000 -0.60598
v -0.29250 1.12000 -0.60598
v -0.27969 0.84000 -0.59500
v -0.27969 1.12000 -0.59500
v 0.34500 0.84000 -0.58000
v 0.34500 1.12000 -0.58000
v 0.34031 0.84000 -0.56500
v 0.34031 1.12000 -0.56500
v 0.32750 0.84000 -0.55402
v 0.32750 1.12000 -0.55402
v 0.31000 0.84000 -0.55000
v 0.31000 1.12000 -0.55000
v 0.29250 0.84000 -0.55402
v 0.29250 1.12000 -0.55402
v 0.27969 0.84000 -0.56500
v 0.27969 1.12000 -0.56500
v 0.27500 0.84000 -0.58000
v 0.27500 1.12000 -0.58000
v 0.27969 0.84000 -0.59500
v 0.27969 1.12000 -0.59500
v 0.29250 0.84000 -0.60598
v 0.29250 1.12000 -0.60598
v 0.31000 0.84000 -0.61000
v 0.31000 1.12000 -0.61000
v 0.32750 0.84000 -0.60598
v 0.32750 1.12000 -0.60598
v 0.34031 0.84000 -0.59500
v 0.34031 1.12000 -0.59500
v -0.65000 0.93000 -0.57000
v -0.41000 0.93000 -0.57000
v -0.65000 0.92464 -0.55400
v -0.41000 0.92464 -0.55400
v -0.65000 0.91000 -0.54229
v -0.41000 0.91000 -0.54229
v -0.65000 0.89000 -0.53800
v -0.41000 0.89000 -0.53800
v -0.65000 0.87000 -0.54229
v -0.41000 0.87000 -0.54229
v -0.65000 0.85536 -0.55400
v -0.41000 0.85536 -0.55400
v -0.65000 0.85000 -0.57000
v -0.41000 0.85000 -0.57000
v -0.65000 0.85536 -0.58600
v -0.41000 0.85536 -0.58600
v -0.65000 0.87000 -0.59771
v -0.41000 0.87000 -0.59771
v -0.65000 0.89000 -0.60200
v -0.41000 0.89000 -0.60200
v -0.65000 0.91000 -0.59771
v -0.41000 0.91000 -0.59771
v -0.65000 0.92464 -0.58600
v -0.41000 0.92464 -0.58600
v 0.41000 0.93000 -0.57000
v 0.65000 0.93000 -0.57000
v 0.41000 0.92464 -0.55400
v 0.65000 0.92464 -0.55400
v 0.41000 0.91000 -0.54229
v 0.65000 0.91000 -0.54229
v 0.41000 0.89000 -0.53800
v 0.65000 0.89000 -0.53800
v 0.41000 0.87000 -0.54229
v 0.65000 0.87000 -0.54229
v 0.41000 0.85536 -0.55400
v 0.65000 0.85536 -0.55400
v 0.41000 0.85000 -0.57000
v 0.65000 0.85000 -0.57000
v 0.41000 0.85536 -0.58600
v 0.65000 0.85536 -0.58600
v 0.41000 0.87000 -0.59771
v 0.65000 0.87000 -0.59771
v 0.41000 0.89000 -0.60200
v 0.65000 0.89000 -0.60200
v 0.41000 0.91000 -0.59771
v 0.65000 0.91000 -0.59771
v 0.41000 0.92464 -0.58600
v 0.65000 0.92464 -0.58600
usemtl jacket_black
f 1 3 4 2
f 3 5 6 4
f 5 7 8 6
f 7 9 10 8
f 9 11 12 10
f 11 13 14 12
f 13 15 16 14
f 15 17 18 16
f 17 19 20 18
f 19 21 22 20
f 21 23 24 22
f 23 25 26 24
f 25 27 28 26
f 27 29 30 28
f 29 31 32 30
f 31 33 34 32
f 33 35 36 34
f 35 37 38 36
f 37 39 40 38
f 39 41 42 40
f 41 43 44 42
f 43 45 46 44
f 45 47 48 46
f 47 49 50 48
f 49 51 52 50
f 51 53 54 52
f 53 55 56 54
f 55 1 2 56
f 55 53 51 49 47 45 43 41 39 37 35 33 31 29 27 25 23 21 19 17 15 13 11 9 7 5 3 1
f 2 4 6 8 10 12 14 16 18 20 22 24 26 28 30 32 34 36 38 40 42 44 46 48 50 52 54 56
usemtl shirt_white
f 57 58 59 60
f 62 61 64 63
f 61 57 60 64
f 58 62 63 59
f 60 59 63 64
f 61 62 58 57
usemtl jacket_black
f 65 66 67
f 70 69 68
f 65 66 69 68
f 66 67 70 69
f 67 65 68 70
f 71 72 73
f 76 75 74
f 71 72 75 74
f 72 73 76 75
f 73 71 74 76
usemtl pocket_gray
f 77 78 79 80
f 82 81 84 83
f 81 77 80 84
f 78 82 83 79
f 80 79 83 84
f 81 82 78 77
usemtl skin
f 85 87 88 86
f 87 89 90 88
f 89 91 92 90
f 91 93 94 92
f 93 95 96 94
f 95 97 98 96
f 97 99 100 98
f 99 101 102 100
f 101 103 104 102
f 103 105 106 104
f 105 107 108 106
f 107 109 110 108
f 109 111 112 110
f 111 113 114 112
f 113 115 116 114
f 115 117 118 116
f 117 119 120 118
f 119 121 122 120
f 121 123 124 122
f 123 125 126 124
f 125 127 128 126
f 127 85 86 128
f 127 125 123 121 119 117 115 113 111 109 107 105 103 101 99 97 95 93 91 89 87 85
f 86 88 90 92 94 96 98 100 102 104 106 108 110 112 114 116 118 120 122 124 126 128
f 129 158 157
f 130 159 158
f 131 160 159
f 132 161 160
f 133 162 161
f 134 163 162
f 135 164 163
f 136 165 164
f 137 166 165
f 138 167 166
f 139 168 167
f 140 169 168
f 141 170 169
f 142 171 170
f 143 172 171
f 144 173 172
f 145 174 173
f 146 175 174
f 147 176 175
f 148 177 176
f 149 178 177
f 150 179 178
f 151 180 179
f 152 181 180
f 153 182 181
f 154 183 182
f 155 184 183
f 156 157 184
f 157 158 186 185
f 158 159 187 186
f 159 160 188 187
f 160 161 189 188
f 161 162 190 189
f 162 163 191 190
f 163 164 192 191
f 164 165 193 192
f 165 166 194 193
f 166 167 195 194
f 167 168 196 195
f 168 169 197 196
f 169 170 198 197
f 170 171 199 198
f 171 172 200 199
f 172 173 201 200
f 173 174 202 201
f 174 175 203 202
f 175 176 204 203
f 176 177 205 204
f 177 178 206 205
f 178 179 207 206
f 179 180 208 207
f 180 181 209 208
f 181 182 210 209
f 182 183 211 210
f 183 184 212 211
f 184 157 185 212
f 185 186 214 213
f 186 187 215 214
f 187 188 216 215
f 188 189 217 216
f 189 190 218 217
f 190 191 219 218
f 191 192 220 219
f 192 193 221 220
f 193 194 222 221
f 194 195 223 222
f 195 196 224 223
f 196 197 225 224
f 197 198 226 225
f 198 199 227 226
f 199 200 228 227
f 200 201 229 228
f 201 202 230 229
f 202 203 231 230
f 203 204 232 231
f 204 205 233 232
f 205 206 234 233
f 206 207 235 234
f 207 208 236 235
f 208 209 237 236
f 209 210 238 237
f 210 211 239 238
f 211 212 240 239
f 212 185 213 240
f 213 214 242 241
f 214 215 243 242
f 215 216 244 243
f 216 217 245 244
f 217 218 246 245
f 218 219 247 246
f 219 220 248 247
f 220 221 249 248
f 221 222 250 249
f 222 223 251 250
f 223 224 252 251
f 224 225 253 252
f 225 226 254 253
f 226 227 255 254
f 227 228 256 255
f 228 229 257 256
f 229 230 258 257
f 230 231 259 258
f 231 232 260 259
f 232 233 261 260
f 233 234 262 261
f 234 235 263 262
f 235 236 264 263
f 236 237 265 264
f 237 238 266 265
f 238 239 267 266
f 239 240 268 267
f 240 213 241 268
f 241 242 270 269
f 242 243 271 270
f 243 244 272 271
f 244 245 273 272
f 245 246 274 273
f 246 247 275 274
f 247 248 276 275
f 248 249 277 276
f 249 250 278 277
f 250 251 279 278
f 251 252 280 279
f 252 253 281 280
f 253 254 282 281
f 254 255 283 282
f 255 256 284 283
f 256 257 285 284
f 257 258 286 285
f 258 259 287 286
f 259 260 288 287
f 260 261 289 288
f 261 262 290 289
f 262 263 291 290
f 263 264 292 291
f 264 265 293 292
f 265 266 294 293
f 266 267 295 294
f 267 268 296 295
f 268 241 269 296
f 269 270 298 297
f 270 271 299 298
f 271 272 300 299
f 272 273 301 300
f 273 274 302 301
f 274 275 303 302
f 275 276 304 303
f 276 277 305 304
f 277 278 306 305
f 278 279 307 306
f 279 280 308 307
f 280 281 309 308
f 281 282 310 309
f 282 283 311 310
f 283 284 312 311
f 284 285 313 312
f 285 286 314 313
f 286 287 315 314
f 287 288 316 315
f 288 289 317 316
f 289 290 318 317
f 290 291 319 318
f 291 292 320 319
f 292 293 321 320
f 293 294 322 321
f 294 295 323 322
f 295 296 324 323
f 296 269 297 324
f 297 298 326 325
f 298 299 327 326
f 299 300 328 327
f 300 301 329 328
f 301 302 330 329
f 302 303 331 330
f 303 304 332 331
f 304 305 333 332
f 305 306 334 333
f 306 307 335 334
f 307 308 336 335
f 308 309 337 336
f 309 310 338 337
f 310 311 339 338
f 311 312 340 339
f 312 313 341 340
f 313 314 342 341
f 314 315 343 342
f 315 316 344 343
f 316 317 345 344
f 317 318 346 345
f 318 319 347 346
f 319 320 348 347
f 320 321 349 348
f 321 322 350 349
f 322 323 351 350
f 323 324 352 351
f 324 297 325 352
f 325 326 354 353
f 326 327 355 354
f 327 328 356 355
f 328 329 357 356
f 329 330 358 357
f 330 331 359 358
f 331 332 360 359
f 332 333 361 360
f 333 334 362 361
f 334 335 363 362
f 335 336 364 363
f 336 337 365 364
f 337 338 366 365
f 338 339 367 366
f 339 340 368 367
f 340 341 369 368
f 341 342 370 369
f 342 343 371 370
f 343 344 372 371
f 344 345 373 372
f 345 346 374 373
f 346 347 375 374
f 347 348 376 375
f 348 349 377 376
f 349 350 378 377
f 350 351 379 378
f 351 352 380 379
f 352 325 353 380
f 353 354 382 381
f 354 355 383 382
f 355 356 384 383
f 356 357 385 384
f 357 358 386 385
f 358 359 387 386
f 359 360 388 387
f 360 361 389 388
f 361 362 390 389
f 362 363 391 390
f 363 364 392 391
f 364 365 393 392
f 365 366 394 393
f 366 367 395 394
f 367 368 396 395
f 368 369 397 396
f 369 370 398 397
f 370 371 399 398
f 371 372 400 399
f 372 373 401 400
f 373 374 402 401
f 374 375 403 402
f 375 376 404 403
f 376 377 405 404
f 377 378 406 405
f 378 379 407 406
f 379 380 408 407
f 380 353 381 408
f 381 382 410 409
f 382 383 411 410
f 383 384 412 411
f 384 385 413 412
f 385 386 414 413
f 386 387 415 414
f 387 388 416 415
f 388 389 417 416
f 389 390 418 417
f 390 391 419 418
f 391 392 420 419
f 392 393 421 420
f 393 394 422 421
f 394 395 423 422
f 395 396 424 423
f 396 397 425 424
f 397 398 426 425
f 398 399 427 426
f 399 400 428 427
f 400 401 429 428
f 401 402 430 429
f 402 403 431 430
f 403 404 432 431
f 404 405 433 432
f 405 406 434 433
f 406 407 435 434
f 407 408 436 435
f 408 381 409 436
f 409 410 438 437
f 410 411 439 438
f 411 412 440 439
f 412 413 441 440
f 413 414 442 441
f 414 415 443 442
f 415 416 444 443
f 416 417 445 444
f 417 418 446 445
f 418 419 447 446
f 419 420 448 447
f 420 421 449 448
f 421 422 450 449
f 422 423 451 450
f 423 424 452 451
f 424 425 453 452
f 425 426 454 453
f 426 427 455 454
f 427 428 456 455
f 428 429 457 456
f 429 430 458 457
f 430 431 459 458
f 431 432 460 459
f 432 433 461 460
f 433 434 462 461
f 434 435 463 462
f 435 436 464 463
f 436 409 437 464
f 437 438 466 465
f 438 439 467 466
f 439 440 468 467
f 440 441 469 468
f 441 442 470 469
f 442 443 471 470
f 443 444 472 471
f 444 445 473 472
f 445 446 474 473
f 446 447 475 474
f 447 448 476 475
f 448 449 477 476
f 449 450 478 477
f 450 451 479 478
f 451 452 480 479
f 452 453 481 480
f 453 454 482 481
f 454 455 483 482
f 455 456 484 483
f 456 457 485 484
f 457 458 486 485
f 458 459 487 486
f 459 460 488 487
f 460 461 489 488
f 461 462 490 489
f 462 463 491 490
f 463 464 492 491
f 464 437 465 492
f 465 466 494 493
f 466 467 495 494
f 467 468 496 495
f 468 469 497 496
f 469 470 498 497
f 470 471 499 498
f 471 472 500 499
f 472 473 501 500
f 473 474 502 501
f 474 475 503 502
f 475 476 504 503
f 476 477 505 504
f 477 478 506 505
f 478 479 507 506
f 479 480 508 507
f 480 481 509 508
f 481 482 510 509
f 482 483 511 510
f 483 484 512 511
f 484 485 513 512
f 485 486 514 513
f 486 487 515 514
f 487 488 516 515
f 488 489 517 516
f 489 490 518 517
f 490 491 519 518
f 491 492 520 519
f 492 465 493 520
f 493 494 521
f 494 495 522
f 495 496 523
f 496 497 524
f 497 498 525
f 498 499 526
f 499 500 527
f 500 501 528
f 501 502 529
f 502 503 530
f 503 504 531
f 504 505 532
f 505 506 533
f 506 507 534
f 507 508 535
f 508 509 536
f 509 510 537
f 510 511 538
f 511 512 539
f 512 513 540
f 513 514 541
f 514 515 542
f 515 516 543
f 516 517 544
f 517 518 545
f 518 519 546
f 519 520 547
f 520 493 548
f 549 564 563
f 550 565 564
f 551 566 565
f 552 567 566
f 553 568 567
f 554 569 568
f 555 570 569
f 556 571 570
f 557 572 571
f 558 573 572
f 559 574 573
f 560 575 574
f 561 576 575
f 562 563 576
f 563 564 578 577
f 564 565 579 578
f 565 566 580 579
f 566 567 581 580
f 567 568 582 581
f 568 569 583 582
f 569 570 584 583
f 570 571 585 584
f 571 572 586 585
f 572 573 587 586
f 573 574 588 587
f 574 575 589 588
f 575 576 590 589
f 576 563 577 590
f 577 578 592 591
f 578 579 593 592
f 579 580 594 593
f 580 581 595 594
f 581 582 596 595
f 582 583 597 596
f 583 584 598 597
f 584 585 599 598
f 585 586 600 599
f 586 587 601 600
f 587 588 602 601
f 588 589 603 602
f 589 590 604 603
f 590 577 591 604
f 591 592 606 605
f 592 593 607 606
f 593 594 608 607
f 594 595 609 608
f 595 596 610 609
f 596 597 611 610
f 597 598 612 611
f 598 599 613 612
f 599 600 614 613
f 600 601 615 614
f 601 602 616 615
f 602 603 617 616
f 603 604 618 617
f 604 591 605 618
f 605 606 620 619
f 606 607 621 620
f 607 608 622 621
f 608 609 623 622
f 609 610 624 623
f 610 611 625 624
f 611 612 626 625
f 612 613 627 626
f 613 614 628 627
f 614 615 629 628
f 615 616 630 629
f 616 617 631 630
f 617 618 632 631
f 618 605 619 632
f 619 620 634 633
f 620 621 635 634
f 621 622 636 635
f 622 623 637 636
f 623 624 638 637
f 624 625 639 638
f 625 626 640 639
f 626 627 641 640
f 627 628 642 641
f 628 629 643 642
f 629 630 644 643
f 630 631 645 644
f 631 632 646 645
f 632 619 633 646
f 633 634 648 647
f 634 635 649 648
f 635 636 650 649
f 636 637 651 650
f 637 638 652 651
f 638 639 653 652
f 639 640 654 653
f 640 641 655 654
f 641 642 656 655
f 642 643 657 656
f 643 644 658 657
f 644 645 659 658
f 645 646 660 659
f 646 633 647 660
f 647 648 661
f 648 649 662
f 649 650 663
f 650 651 664
f 651 652 665
f 652 653 666
f 653 654 667
f 654 655 668
f 655 656 669
f 656 657 670
f 657 658 671
f 658 659 672
f 659 660 673
f 660 647 674
f 675 690 689
f 676 691 690
f 677 692 691
f 678 693 692
f 679 694 693
f 680 695 694
f 681 696 695
f 682 697 696
f 683 698 697
f 684 699 698
f 685 700 699
f 686 701 700
f 687 702 701
f 688 689 702
f 689 690 704 703
f 690 691 705 704
f 691 692 706 705
f 692 693 707 706
f 693 694 708 707
f 694 695 709 708
f 695 696 710 709
f 696 697 711 710
f 697 698 712 711
f 698 699 713 712
f 699 700 714 713
f 700 701 715 714
f 701 702 716 715
f 702 689 703 716
f 703 704 718 717
f 704 705 719 718
f 705 706 720 719
f 706 707 721 720
f 707 708 722 721
f 708 709 723 722
f 709 710 724 723
f 710 711 725 724
f 711 712 726 725
f 712 713 727 726
f 713 714 728 727
f 714 715 729 728
f 715 716 730 729
f 716 703 717 730
f 717 718 732 731
f 718 719 733 732
f 719 720 734 733
f 720 721 735 734
f 721 722 736 735
f 722 723 737 736
f 723 724 738 737
f 724 725 739 738
f 725 726 740 739
f 726 727 741 740
f 727 728 742 741
f 728 729 743 742
f 729 730 744 743
f 730 717 731 744
f 731 732 746 745
f 732 733 747 746
f 733 734 748 747
f 734 735 749 748
f 735 736 750 749
f 736 737 751 750
f 737 738 752 751
f 738 739 753 752
f 739 740 754 753
f 740 741 755 754
f 741 742 756 755
f 742 743 757 756
f 743 744 758 757
f 744 731 745 758
f 745 746 760 759
f 746 747 761 760
f 747 748 762 761
f 748 749 763 762
f 749 750 764 763
f 750 751 765 764
f 751 752 766 765
f 752 753 767 766
f 753 754 768 767
f 754 755 769 768
f 755 756 770 769
f 756 757 771 770
f 757 758 772 771
f 758 745 759 772
f 759 760 774 773
f 760 761 775 774
f 761 762 776 775
f 762 763 777 776
f 763 764 778 777
f 764 765 779 778
f 765 766 780 779
f 766 767 781 780
f 767 768 782 781
f 768 769 783 782
f 769 770 784 783
f 770 771 785 784
f 771 772 786 785
f 772 759 773 786
f 773 774 787
f 774 775 788
f 775 776 789
f 776 777 790
f 777 778 791
f 778 779 792
f 779 780 793
f 780 781 794
f 781 782 795
f 782 783 796
f 783 784 797
f 784 785 798
f 785 786 799
f 786 773 800
usemtl hair_black
f 801 830 829
f 802 831 830
f 803 832 831
f 804 833 832
f 805 834 833
f 806 835 834
f 807 836 835
f 808 837 836
f 809 838 837
f 810 839 838
f 811 840 839
f 812 841 840
f 813 842 841
f 814 843 842
f 815 844 843
f 816 845 844
f 817 846 845
f 818 847 846
f 819 848 847
f 820 849 848
f 821 850 849
f 822 851 850
f 823 852 851
f 824 853 852
f 825 854 853
f 826 855 854
f 827 856 855
f 828 829 856
f 829 830 858 857
f 830 831 859 858
f 831 832 860 859
f 832 833 861 860
f 833 834 862 861
f 834 835 863 862
f 835 836 864 863
f 836 837 865 864
f 837 838 866 865
f 838 839 867 866
f 839 840 868 867
f 840 841 869 868
f 841 842 870 869
f 842 843 871 870
f 843 844 872 871
f 844 845 873 872
f 845 846 874 873
f 846 847 875 874
f 847 848 876 875
f 848 849 877 876
f 849 850 878 877
f 850 851 879 878
f 851 852 880 879
f 852 853 881 880
f 853 854 882 881
f 854 855 883 882
f 855 856 884 883
f 856 829 857 884
f 857 858 886 885
f 858 859 887 886
f 859 860 888 887
f 860 861 889 888
f 861 862 890 889
f 862 863 891 890
f 863 864 892 891
f 864 865 893 892
f 865 866 894 893
f 866 867 895 894
f 867 868 896 895
f 868 869 897 896
f 869 870 898 897
f 870 871 899 898
f 871 872 900 899
f 872 873 901 900
f 873 874 902 901
f 874 875 903 902
f 875 876 904 903
f 876 877 905 904
f 877 878 906 905
f 878 879 907 906
f 879 880 908 907
f 880 881 909 908
f 881 882 910 909
f 882 883 911 910
f 883 884 912 911
f 884 857 885 912
f 885 886 914 913
f 886 887 915 914
f 887 888 916 915
f 888 889 917 916
f 889 890 918 917
f 890 891 919 918
f 891 892 920 919
f 892 893 921 920
f 893 894 922 921
f 894 895 923 922
f 895 896 924 923
f 896 897 925 924
f 897 898 926 925
f 898 899 927 926
f 899 900 928 927
f 900 901 929 928
f 901 902 930 929
f 902 903 931 930
f 903 904 932 931
f 904 905 933 932
f 905 906 934 933
f 906 907 935 934
f 907 908 936 935
f 908 909 937 936
f 909 910 938 937
f 910 911 939 938
f 911 912 940 939
f 912 885 913 940
f 913 914 942 941
f 914 915 943 942
f 915 916 944 943
f 916 917 945 944
f 917 918 946 945
f 918 919 947 946
f 919 920 948 947
f 920 921 949 948
f 921 922 950 949
f 922 923 951 950
f 923 924 952 951
f 924 925 953 952
f 925 926 954 953
f 926 927 955 954
f 927 928 956 955
f 928 929 957 956
f 929 930 958 957
f 930 931 959 958
f 931 932 960 959
f 932 933 961 960
f 933 934 962 961
f 934 935 963 962
f 935 936 964 963
f 936 937 965 964
f 937 938 966 965
f 938 939 967 966
f 939 940 968 967
f 940 913 941 968
f 941 942 970 969
f 942 943 971 970
f 943 944 972 971
f 944 945 973 972
f 945 946 974 973
f 946 947 975 974
f 947 948 976 975
f 948 949 977 976
f 949 950 978 977
f 950 951 979 978
f 951 952 980 979
f 952 953 981 980
f 953 954 982 981
f 954 955 983 982
f 955 956 984 983
f 956 957 985 984
f 957 958 986 985
f 958 959 987 986
f 959 960 988 987
f 960 961 989 988
f 961 962 990 989
f 962 963 991 990
f 963 964 992 991
f 964 965 993 992
f 965 966 994 993
f 966 967 995 994
f 967 968 996 995
f 968 941 969 996
f 969 970 998 997
f 970 971 999 998
f 971 972 1000 999
f 972 973 1001 1000
f 973 974 1002 1001
f 974 975 1003 1002
f 975 976 1004 1003
f 976 977 1005 1004
f 977 978 1006 1005
f 978 979 1007 1006
f 979 980 1008 1007
f 980 981 1009 1008
f 981 982 1010 1009
f 982 983 1011 1010
f 983 984 1012 1011
f 984 985 1013 1012
f 985 986 1014 1013
f 986 987 1015 1014
f 987 988 1016 1015
f 988 989 1017 1016
f 989 990 1018 1017
f 990 991 1019 1018
f 991 992 1020 1019
f 992 993 1021 1020
f 993 994 1022 1021
f 994 995 1023 1022
f 995 996 1024 1023
f 996 969 997 1024
f 997 998 1025
f 998 999 1026
f 999 1000 1027
f 1000 1001 1028
f 1001 1002 1029
f 1002 1003 1030
f 1003 1004 1031
f 1004 1005 1032
f 1005 1006 1033
f 1006 1007 1034
f 1007 1008 1035
f 1008 1009 1036
f 1009 1010 1037
f 1010 1011 1038
f 1011 1012 1039
f 1012 1013 1040
f 1013 1014 1041
f 1014 1015 1042
f 1015 1016 1043
f 1016 1017 1044
f 1017 1018 1045
f 1018 1019 1046
f 1019 1020 1047
f 1020 1021 1048
f 1021 1022 1049
f 1022 1023 1050
f 1023 1024 1051
f 1024 997 1052
f 1053 1074 1073
f 1054 1075 1074
f 1055 1076 1075
f 1056 1077 1076
f 1057 1078 1077
f 1058 1079 1078
f 1059 1080 1079
f 1060 1081 1080
f 1061 1082 1081
f 1062 1083 1082
f 1063 1084 1083
f 1064 1085 1084
f 1065 1086 1085
f 1066 1087 1086
f 1067 1088 1087
f 1068 1089 1088
f 1069 1090 1089
f 1070 1091 1090
f 1071 1092 1091
f 1072 1073 1092
f 1073 1074 1094 1093
f 1074 1075 1095 1094
f 1075 1076 1096 1095
f 1076 1077 1097 1096
f 1077 1078 1098 1097
f 1078 1079 1099 1098
f 1079 1080 1100 1099
f 1080 1081 1101 1100
f 1081 1082 1102 1101
f 1082 1083 1103 1102
f 1083 1084 1104 1103
f 1084 1085 1105 1104
f 1085 1086 1106 1105
f 1086 1087 1107 1106
f 1087 1088 1108 1107
f 1088 1089 1109 1108
f 1089 1090 1110 1109
f 1090 1091 1111 1110
f 1091 1092 1112 1111
f 1092 1073 1093 1112
f 1093 1094 1114 1113
f 1094 1095 1115 1114
f 1095 1096 1116 1115
f 1096 1097 1117 1116
f 1097 1098 1118 1117
f 1098 1099 1119 1118
f 1099 1100 1120 1119
f 1100 1101 1121 1120
f 1101 1102 1122 1121
f 1102 1103 1123 1122
f 1103 1104 1124 1123
f 1104 1105 1125 1124
f 1105 1106 1126 1125
f 1106 1107 1127 1126
f 1107 1108 1128 1127
f 1108 1109 1129 1128
f 1109 1110 1130 1129
f 1110 1111 1131 1130
f 1111 1112 1132 1131
f 1112 1093 1113 1132
f 1113 1114 1134 1133
f 1114 1115 1135 1134
f 1115 1116 1136 1135
f 1116 1117 1137 1136
f 1117 1118 1138 1137
f 1118 1119 1139 1138
f 1119 1120 1140 1139
f 1120 1121 1141 1140
f 1121 1122 1142 1141
f 1122 1123 1143 1142
f 1123 1124 1144 1143
f 1124 1125 1145 1144
f 1125 1126 1146 1145
f 1126 1127 1147 1146
f 1127 1128 1148 1147
f 1128 1129 1149 1148
f 1129 1130 1150 1149
f 1130 1131 1151 1150
f 1131 1132 1152 1151
f 1132 1113 1133 1152
f 1133 1134 1154 1153
f 1134 1135 1155 1154
f 1135 1136 1156 1155
f 1136 1137 1157 1156
f 1137 1138 1158 1157
f 1138 1139 1159 1158
f 1139 1140 1160 1159
f 1140 1141 1161 1160
f 1141 1142 1162 1161
f 1142 1143 1163 1162
f 1143 1144 1164 1163
f 1144 1145 1165 1164
f 1145 1146 1166 1165
f 1146 1147 1167 1166
f 1147 1148 1168 1167
f 1148 1149 1169 1168
f 1149 1150 1170 1169
f 1150 1151 1171 1170
f 1151 1152 1172 1171
f 1152 1133 1153 1172
f 1153 1154 1174 1173
f 1154 1155 1175 1174
f 1155 1156 1176 1175
f 1156 1157 1177 1176
f 1157 1158 1178 1177
f 1158 1159 1179 1178
f 1159 1160 1180 1179
f 1160 1161 1181 1180
f 1161 1162 1182 1181
f 1162 1163 1183 1182
f 1163 1164 1184 1183
f 1164 1165 1185 1184
f 1165 1166 1186 1185
f 1166 1167 1187 1186
f 1167 1168 1188 1187
f 1168 1169 1189 1188
f 1169 1170 1190 1189
f 1170 1171 1191 1190
f 1171 1172 1192 1191
f 1172 1153 1173 1192
f 1173 1174 1194 1193
f 1174 1175 1195 1194
f 1175 1176 1196 1195
f 1176 1177 1197 1196
f 1177 1178 1198 1197
f 1178 1179 1199 1198
f 1179 1180 1200 1199
f 1180 1181 1201 1200
f 1181 1182 1202 1201
f 1182 1183 1203 1202
f 1183 1184 1204 1203
f 1184 1185 1205 1204
f 1185 1186 1206 1205
f 1186 1187 1207 1206
f 1187 1188 1208 1207
f 1188 1189 1209 1208
f 1189 1190 1210 1209
f 1190 1191 1211 1210
f 1191 1192 1212 1211
f 1192 1173 1193 1212
f 1193 1194 1213
f 1194 1195 1214
f 1195 1196 1215
f 1196 1197 1216
f 1197 1198 1217
f 1198 1199 1218
f 1199 1200 1219
f 1200 1201 1220
f 1201 1202 1221
f 1202 1203 1222
f 1203 1204 1223
f 1204 1205 1224
f 1205 1206 1225
f 1206 1207 1226
f 1207 1208 1227
f 1208 1209 1228
f 1209 1210 1229
f 1210 1211 1230
f 1211 1212 1231
f 1212 1193 1232
f 1233 1234 1235 1236
f 1238 1237 1240 1239
f 1237 1233 1236 1240
f 1234 1238 1239 1235
f 1236 1235 1239 1240
f 1237 1238 1234 1233
f 1241 1242 1243 1244
f 1246 1245 1248 1247
f 1245 1241 1244 1248
f 1242 1246 1247 1243
f 1244 1243 1247 1248
f 1245 1246 1242 1241
usemtl eye_dark
f 1249 1264 1263
f 1250 1265 1264
f 1251 1266 1265
f 1252 1267 1266
f 1253 1268 1267
f 1254 1269 1268
f 1255 1270 1269
f 1256 1271 1270
f 1257 1272 1271
f 1258 1273 1272
f 1259 1274 1273
f 1260 1275 1274
f 1261 1276 1275
f 1262 1263 1276
f 1263 1264 1278 1277
f 1264 1265 1279 1278
f 1265 1266 1280 1279
f 1266 1267 1281 1280
f 1267 1268 1282 1281
f 1268 1269 1283 1282
f 1269 1270 1284 1283
f 1270 1271 1285 1284
f 1271 1272 1286 1285
f 1272 1273 1287 1286
f 1273 1274 1288 1287
f 1274 1275 1289 1288
f 1275 1276 1290 1289
f 1276 1263 1277 1290
f 1277 1278 1292 1291
f 1278 1279 1293 1292
f 1279 1280 1294 1293
f 1280 1281 1295 1294
f 1281 1282 1296 1295
f 1282 1283 1297 1296
f 1283 1284 1298 1297
f 1284 1285 1299 1298
f 1285 1286 1300 1299
f 1286 1287 1301 1300
f 1287 1288 1302 1301
f 1288 1289 1303 1302
f 1289 1290 1304 1303
f 1290 1277 1291 1304
f 1291 1292 1306 1305
f 1292 1293 1307 1306
f 1293 1294 1308 1307
f 1294 1295 1309 1308
f 1295 1296 1310 1309
f 1296 1297 1311 1310
f 1297 1298 1312 1311
f 1298 1299 1313 1312
f 1299 1300 1314 1313
f 1300 1301 1315 1314
f 1301 1302 1316 1315
f 1302 1303 1317 1316
f 1303 1304 1318 1317
f 1304 1291 1305 1318
f 1305 1306 1320 1319
f 1306 1307 1321 1320
f 1307 1308 1322 1321
f 1308 1309 1323 1322
f 1309 1310 1324 1323
f 1310 1311 1325 1324
f 1311 1312 1326 1325
f 1312 1313 1327 1326
f 1313 1314 1328 1327
f 1314 1315 1329 1328
f 1315 1316 1330 1329
f 1316 1317 1331 1330
f 1317 1318 1332 1331
f 1318 1305 1319 1332
f 1319 1320 1333
f 1320 1321 1334
f 1321 1322 1335
f 1322 1323 1336
f 1323 1324 1337
f 1324 1325 1338
f 1325 1326 1339
f 1326 1327 1340
f 1327 1328 1341
f 1328 1329 1342
f 1329 1330 1343
f 1330 1331 1344
f 1331 1332 1345
f 1332 1319 1346
f 1347 1362 1361
f 1348 1363 1362
f 1349 1364 1363
f 1350 1365 1364
f 1351 1366 1365
f 1352 1367 1366
f 1353 1368 1367
f 1354 1369 1368
f 1355 1370 1369
f 1356 1371 1370
f 1357 1372 1371
f 1358 1373 1372
f 1359 1374 1373
f 1360 1361 1374
f 1361 1362 1376 1375
f 1362 1363 1377 1376
f 1363 1364 1378 1377
f 1364 1365 1379 1378
f 1365 1366 1380 1379
f 1366 1367 1381 1380
f 1367 1368 1382 1381
f 1368 1369 1383 1382
f 1369 1370 1384 1383
f 1370 1371 1385 1384
f 1371 1372 1386 1385
f 1372 1373 1387 1386
f 1373 1374 1388 1387
f 1374 1361 1375 1388
f 1375 1376 1390 1389
f 1376 1377 1391 1390
f 1377 1378 1392 1391
f 1378 1379 1393 1392
f 1379 1380 1394 1393
f 1380 1381 1395 1394
f 1381 1382 1396 1395
f 1382 1383 1397 1396
f 1383 1384 1398 1397
f 1384 1385 1399 1398
f 1385 1386 1400 1399
f 1386 1387 1401 1400
f 1387 1388 1402 1401
f 1388 1375 1389 1402
f 1389 1390 1404 1403
f 1390 1391 1405 1404
f 1391 1392 1406 1405
f 1392 1393 1407 1406
f 1393 1394 1408 1407
f 1394 1395 1409 1408
f 1395 1396 1410 1409
f 1396 1397 1411 1410
f 1397 1398 1412 1411
f 1398 1399 1413 1412
f 1399 1400 1414 1413
f 1400 1401 1415 1414
f 1401 1402 1416 1415
f 1402 1389 1403 1416
f 1403 1404 1418 1417
f 1404 1405 1419 1418
f 1405 1406 1420 1419
f 1406 1407 1421 1420
f 1407 1408 1422 1421
f 1408 1409 1423 1422
f 1409 1410 1424 1423
f 1410 1411 1425 1424
f 1411 1412 1426 1425
f 1412 1413 1427 1426
f 1413 1414 1428 1427
f 1414 1415 1429 1428
f 1415 1416 1430 1429
f 1416 1403 1417 1430
f 1417 1418 1431
f 1418 1419 1432
f 1419 1420 1433
f 1420 1421 1434
f 1421 1422 1435
f 1422 1423 1436
f 1423 1424 1437
f 1424 1425 1438
f 1425 1426 1439
f 1426 1427 1440
f 1427 1428 1441
f 1428 1429 1442
f 1429 1430 1443
f 1430 1417 1444
usemtl hair_black
f 1445 1446 1447 1448
f 1450 1449 1452 1451
f 1449 1445 1448 1452
f 1446 1450 1451 1447
f 1448 1447 1451 1452
f 1449 1450 1446 1445
f 1453 1454 1455 1456
f 1458 1457 1460 1459
f 1457 1453 1456 1460
f 1454 1458 1459 1455
f 1456 1455 1459 1460
f 1457 1458 1454 1453
usemtl skin_shadow
f 1461 1476 1475
f 1462 1477 1476
f 1463 1478 1477
f 1464 1479 1478
f 1465 1480 1479
f 1466 1481 1480
f 1467 1482 1481
f 1468 1483 1482
f 1469 1484 1483
f 1470 1485 1484
f 1471 1486 1485
f 1472 1487 1486
f 1473 1488 1487
f 1474 1475 1488
f 1475 1476 1490 1489
f 1476 1477 1491 1490
f 1477 1478 1492 1491
f 1478 1479 1493 1492
f 1479 1480 1494 1493
f 1480 1481 1495 1494
f 1481 1482 1496 1495
f 1482 1483 1497 1496
f 1483 1484 1498 1497
f 1484 1485 1499 1498
f 1485 1486 1500 1499
f 1486 1487 1501 1500
f 1487 1488 1502 1501
f 1488 1475 1489 1502
f 1489 1490 1504 1503
f 1490 1491 1505 1504
f 1491 1492 1506 1505
f 1492 1493 1507 1506
f 1493 1494 1508 1507
f 1494 1495 1509 1508
f 1495 1496 1510 1509
f 1496 1497 1511 1510
f 1497 1498 1512 1511
f 1498 1499 1513 1512
f 1499 1500 1514 1513
f 1500 1501 1515 1514
f 1501 1502 1516 1515
f 1502 1489 1503 1516
f 1503 1504 1518 1517
f 1504 1505 1519 1518
f 1505 1506 1520 1519
f 1506 1507 1521 1520
f 1507 1508 1522 1521
f 1508 1509 1523 1522
f 1509 1510 1524 1523
f 1510 1511 1525 1524
f 1511 1512 1526 1525
f 1512 1513 1527 1526
f 1513 1514 1528 1527
f 1514 1515 1529 1528
f 1515 1516 1530 1529
f 1516 1503 1517 1530
f 1517 1518 1532 1531
f 1518 1519 1533 1532
f 1519 1520 1534 1533
f 1520 1521 1535 1534
f 1521 1522 1536 1535
f 1522 1523 1537 1536
f 1523 1524 1538 1537
f 1524 1525 1539 1538
f 1525 1526 1540 1539
f 1526 1527 1541 1540
f 1527 1528 1542 1541
f 1528 1529 1543 1542
f 1529 1530 1544 1543
f 1530 1517 1531 1544
f 1531 1532 1546 1545
f 1532 1533 1547 1546
f 1533 1534 1548 1547
f 1534 1535 1549 1548
f 1535 1536 1550 1549
f 1536 1537 1551 1550
f 1537 1538 1552 1551
f 1538 1539 1553 1552
f 1539 1540 1554 1553
f 1540 1541 1555 1554
f 1541 1542 1556 1555
f 1542 1543 1557 1556
f 1543 1544 1558 1557
f 1544 1531 1545 1558
f 1545 1546 1560 1559
f 1546 1547 1561 1560
f 1547 1548 1562 1561
f 1548 1549 1563 1562
f 1549 1550 1564 1563
f 1550 1551 1565 1564
f 1551 1552 1566 1565
f 1552 1553 1567 1566
f 1553 1554 1568 1567
f 1554 1555 1569 1568
f 1555 1556 1570 1569
f 1556 1557 1571 1570
f 1557 1558 1572 1571
f 1558 1545 1559 1572
f 1559 1560 1573
f 1560 1561 1574
f 1561 1562 1575
f 1562 1563 1576
f 1563 1564 1577
f 1564 1565 1578
f 1565 1566 1579
f 1566 1567 1580
f 1567 1568 1581
f 1568 1569 1582
f 1569 1570 1583
f 1570 1571 1584
f 1571 1572 1585
f 1572 1559 1586
usemtl lip_warm
f 1587 1606 1605
f 1588 1607 1606
f 1589 1608 1607
f 1590 1609 1608
f 1591 1610 1609
f 1592 1611 1610
f 1593 1612 1611
f 1594 1613 1612
f 1595 1614 1613
f 1596 1615 1614
f 1597 1616 1615
f 1598 1617 1616
f 1599 1618 1617
f 1600 1619 1618
f 1601 1620 1619
f 1602 1621 1620
f 1603 1622 1621
f 1604 1605 1622
f 1605 1606 1624 1623
f 1606 1607 1625 1624
f 1607 1608 1626 1625
f 1608 1609 1627 1626
f 1609 1610 1628 1627
f 1610 1611 1629 1628
f 1611 1612 1630 1629
f 1612 1613 1631 1630
f 1613 1614 1632 1631
f 1614 1615 1633 1632
f 1615 1616 1634 1633
f 1616 1617 1635 1634
f 1617 1618 1636 1635
f 1618 1619 1637 1636
f 1619 1620 1638 1637
f 1620 1621 1639 1638
f 1621 1622 1640 1639
f 1622 1605 1623 1640
f 1623 1624 1642 1641
f 1624 1625 1643 1642
f 1625 1626 1644 1643
f 1626 1627 1645 1644
f 1627 1628 1646 1645
f 1628 1629 1647 1646
f 1629 1630 1648 1647
f 1630 1631 1649 1648
f 1631 1632 1650 1649
f 1632 1633 1651 1650
f 1633 1634 1652 1651
f 1634 1635 1653 1652
f 1635 1636 1654 1653
f 1636 1637 1655 1654
f 1637 1638 1656 1655
f 1638 1639 1657 1656
f 1639 1640 1658 1657
f 1640 1623 1641 1658
f 1641 1642 1660 1659
f 1642 1643 1661 1660
f 1643 1644 1662 1661
f 1644 1645 1663 1662
f 1645 1646 1664 1663
f 1646 1647 1665 1664
f 1647 1648 1666 1665
f 1648 1649 1667 1666
f 1649 1650 1668 1667
f 1650 1651 1669 1668
f 1651 1652 1670 1669
f 1652 1653 1671 1670
f 1653 1654 1672 1671
f 1654 1655 1673 1672
f 1655 1656 1674 1673
f 1656 1657 1675 1674
f 1657 1658 1676 1675
f 1658 1641 1659 1676
f 1659 1660 1678 1677
f 1660 1661 1679 1678
f 1661 1662 1680 1679
f 1662 1663 1681 1680
f 1663 1664 1682 1681
f 1664 1665 1683 1682
f 1665 1666 1684 1683
f 1666 1667 1685 1684
f 1667 1668 1686 1685
f 1668 1669 1687 1686
f 1669 1670 1688 1687
f 1670 1671 1689 1688
f 1671 1672 1690 1689
f 1672 1673 1691 1690
f 1673 1674 1692 1691
f 1674 1675 1693 1692
f 1675 1676 1694 1693
f 1676 1659 1677 1694
f 1677 1678 1695
f 1678 1679 1696
f 1679 1680 1697
f 1680 1681 1698
f 1681 1682 1699
f 1682 1683 1700
f 1683 1684 1701
f 1684 1685 1702
f 1685 1686 1703
f 1686 1687 1704
f 1687 1688 1705
f 1688 1689 1706
f 1689 1690 1707
f 1690 1691 1708
f 1691 1692 1709
f 1692 1693 1710
f 1693 1694 1711
f 1694 1677 1712
usemtl shirt_white
f 1713 1714 1715 1716
f 1718 1717 1720 1719
f 1717 1713 1716 1720
f 1714 1718 1719 1715
f 1716 1715 1719 1720
f 1717 1718 1714 1713
usemtl jacket_black
f 1721 1723 1724 1722
f 1723 1725 1726 1724
f 1725 1727 1728 1726
f 1727 1729 1730 1728
f 1729 1731 1732 1730
f 1731 1733 1734 1732
f 1733 1735 1736 1734
f 1735 1737 1738 1736
f 1737 1739 1740 1738
f 1739 1741 1742 1740
f 1741 1743 1744 1742
f 1743 1745 1746 1744
f 1745 1747 1748 1746
f 1747 1749 1750 1748
f 1749 1751 1752 1750
f 1751 1753 1754 1752
f 1753 1755 1756 1754
f 1755 1721 1722 1756
f 1755 1753 1751 1749 1747 1745 1743 1741 1739 1737 1735 1733 1731 1729 1727 1725 1723 1721
f 1722 1724 1726 1728 1730 1732 1734 1736 1738 1740 1742 1744 1746 1748 1750 1752 1754 1756
f 1757 1759 1760 1758
f 1759 1761 1762 1760
f 1761 1763 1764 1762
f 1763 1765 1766 1764
f 1765 1767 1768 1766
f 1767 1769 1770 1768
f 1769 1771 1772 1770
f 1771 1773 1774 1772
f 1773 1775 1776 1774
f 1775 1777 1778 1776
f 1777 1779 1780 1778
f 1779 1781 1782 1780
f 1781 1783 1784 1782
f 1783 1785 1786 1784
f 1785 1787 1788 1786
f 1787 1789 1790 1788
f 1789 1791 1792 1790
f 1791 1757 1758 1792
f 1791 1789 1787 1785 1783 1781 1779 1777 1775 1773 1771 1769 1767 1765 1763 1761 1759 1757
f 1758 1760 1762 1764 1766 1768 1770 1772 1774 1776 1778 1780 1782 1784 1786 1788 1790 1792
usemtl skin
f 1793 1810 1809
f 1794 1811 1810
f 1795 1812 1811
f 1796 1813 1812
f 1797 1814 1813
f 1798 1815 1814
f 1799 1816 1815
f 1800 1817 1816
f 1801 1818 1817
f 1802 1819 1818
f 1803 1820 1819
f 1804 1821 1820
f 1805 1822 1821
f 1806 1823 1822
f 1807 1824 1823
f 1808 1809 1824
f 1809 1810 1826 1825
f 1810 1811 1827 1826
f 1811 1812 1828 1827
f 1812 1813 1829 1828
f 1813 1814 1830 1829
f 1814 1815 1831 1830
f 1815 1816 1832 1831
f 1816 1817 1833 1832
f 1817 1818 1834 1833
f 1818 1819 1835 1834
f 1819 1820 1836 1835
f 1820 1821 1837 1836
f 1821 1822 1838 1837
f 1822 1823 1839 1838
f 1823 1824 1840 1839
f 1824 1809 1825 1840
f 1825 1826 1842 1841
f 1826 1827 1843 1842
f 1827 1828 1844 1843
f 1828 1829 1845 1844
f 1829 1830 1846 1845
f 1830 1831 1847 1846
f 1831 1832 1848 1847
f 1832 1833 1849 1848
f 1833 1834 1850 1849
f 1834 1835 1851 1850
f 1835 1836 1852 1851
f 1836 1837 1853 1852
f 1837 1838 1854 1853
f 1838 1839 1855 1854
f 1839 1840 1856 1855
f 1840 1825 1841 1856
f 1841 1842 1858 1857
f 1842 1843 1859 1858
f 1843 1844 1860 1859
f 1844 1845 1861 1860
f 1845 1846 1862 1861
f 1846 1847 1863 1862
f 1847 1848 1864 1863
f 1848 1849 1865 1864
f 1849 1850 1866 1865
f 1850 1851 1867 1866
f 1851 1852 1868 1867
f 1852 1853 1869 1868
f 1853 1854 1870 1869
f 1854 1855 1871 1870
f 1855 1856 1872 1871
f 1856 1841 1857 1872
f 1857 1858 1874 1873
f 1858 1859 1875 1874
f 1859 1860 1876 1875
f 1860 1861 1877 1876
f 1861 1862 1878 1877
f 1862 1863 1879 1878
f 1863 1864 1880 1879
f 1864 1865 1881 1880
f 1865 1866 1882 1881
f 1866 1867 1883 1882
f 1867 1868 1884 1883
f 1868 1869 1885 1884
f 1869 1870 1886 1885
f 1870 1871 1887 1886
f 1871 1872 1888 1887
f 1872 1857 1873 1888
f 1873 1874 1890 1889
f 1874 1875 1891 1890
f 1875 1876 1892 1891
f 1876 1877 1893 1892
f 1877 1878 1894 1893
f 1878 1879 1895 1894
f 1879 1880 1896 1895
f 1880 1881 1897 1896
f 1881 1882 1898 1897
f 1882 1883 1899 1898
f 1883 1884 1900 1899
f 1884 1885 1901 1900
f 1885 1886 1902 1901
f 1886 1887 1903 1902
f 1887 1888 1904 1903
f 1888 1873 1889 1904
f 1889 1890 1906 1905
f 1890 1891 1907 1906
f 1891 1892 1908 1907
f 1892 1893 1909 1908
f 1893 1894 1910 1909
f 1894 1895 1911 1910
f 1895 1896 1912 1911
f 1896 1897 1913 1912
f 1897 1898 1914 1913
f 1898 1899 1915 1914
f 1899 1900 1916 1915
f 1900 1901 1917 1916
f 1901 1902 1918 1917
f 1902 1903 1919 1918
f 1903 1904 1920 1919
f 1904 1889 1905 1920
f 1905 1906 1921
f 1906 1907 1922
f 1907 1908 1923
f 1908 1909 1924
f 1909 1910 1925
f 1910 1911 1926
f 1911 1912 1927
f 1912 1913 1928
f 1913 1914 1929
f 1914 1915 1930
f 1915 1916 1931
f 1916 1917 1932
f 1917 1918 1933
f 1918 1919 1934
f 1919 1920 1935
f 1920 1905 1936
f 1937 1954 1953
f 1938 1955 1954
f 1939 1956 1955
f 1940 1957 1956
f 1941 1958 1957
f 1942 1959 1958
f 1943 1960 1959
f 1944 1961 1960
f 1945 1962 1961
f 1946 1963 1962
f 1947 1964 1963
f 1948 1965 1964
f 1949 1966 1965
f 1950 1967 1966
f 1951 1968 1967
f 1952 1953 1968
f 1953 1954 1970 1969
f 1954 1955 1971 1970
f 1955 1956 1972 1971
f 1956 1957 1973 1972
f 1957 1958 1974 1973
f 1958 1959 1975 1974
f 1959 1960 1976 1975
f 1960 1961 1977 1976
f 1961 1962 1978 1977
f 1962 1963 1979 1978
f 1963 1964 1980 1979
f 1964 1965 1981 1980
f 1965 1966 1982 1981
f 1966 1967 1983 1982
f 1967 1968 1984 1983
f 1968 1953 1969 1984
f 1969 1970 1986 1985
f 1970 1971 1987 1986
f 1971 1972 1988 1987
f 1972 1973 1989 1988
f 1973 1974 1990 1989
f 1974 1975 1991 1990
f 1975 1976 1992 1991
f 1976 1977 1993 1992
f 1977 1978 1994 1993
f 1978 1979 1995 1994
f 1979 1980 1996 1995
f 1980 1981 1997 1996
f 1981 1982 1998 1997
f 1982 1983 1999 1998
f 1983 1984 2000 1999
f 1984 1969 1985 2000
f 1985 1986 2002 2001
f 1986 1987 2003 2002
f 1987 1988 2004 2003
f 1988 1989 2005 2004
f 1989 1990 2006 2005
f 1990 1991 2007 2006
f 1991 1992 2008 2007
f 1992 1993 2009 2008
f 1993 1994 2010 2009
f 1994 1995 2011 2010
f 1995 1996 2012 2011
f 1996 1997 2013 2012
f 1997 1998 2014 2013
f 1998 1999 2015 2014
f 1999 2000 2016 2015
f 2000 1985 2001 2016
f 2001 2002 2018 2017
f 2002 2003 2019 2018
f 2003 2004 2020 2019
f 2004 2005 2021 2020
f 2005 2006 2022 2021
f 2006 2007 2023 2022
f 2007 2008 2024 2023
f 2008 2009 2025 2024
f 2009 2010 2026 2025
f 2010 2011 2027 2026
f 2011 2012 2028 2027
f 2012 2013 2029 2028
f 2013 2014 2030 2029
f 2014 2015 2031 2030
f 2015 2016 2032 2031
f 2016 2001 2017 2032
f 2017 2018 2034 2033
f 2018 2019 2035 2034
f 2019 2020 2036 2035
f 2020 2021 2037 2036
f 2021 2022 2038 2037
f 2022 2023 2039 2038
f 2023 2024 2040 2039
f 2024 2025 2041 2040
f 2025 2026 2042 2041
f 2026 2027 2043 2042
f 2027 2028 2044 2043
f 2028 2029 2045 2044
f 2029 2030 2046 2045
f 2030 2031 2047 2046
f 2031 2032 2048 2047
f 2032 2017 2033 2048
f 2033 2034 2050 2049
f 2034 2035 2051 2050
f 2035 2036 2052 2051
f 2036 2037 2053 2052
f 2037 2038 2054 2053
f 2038 2039 2055 2054
f 2039 2040 2056 2055
f 2040 2041 2057 2056
f 2041 2042 2058 2057
f 2042 2043 2059 2058
f 2043 2044 2060 2059
f 2044 2045 2061 2060
f 2045 2046 2062 2061
f 2046 2047 2063 2062
f 2047 2048 2064 2063
f 2048 2033 2049 2064
f 2049 2050 2065
f 2050 2051 2066
f 2051 2052 2067
f 2052 2053 2068
f 2053 2054 2069
f 2054 2055 2070
f 2055 2056 2071
f 2056 2057 2072
f 2057 2058 2073
f 2058 2059 2074
f 2059 2060 2075
f 2060 2061 2076
f 2061 2062 2077
f 2062 2063 2078
f 2063 2064 2079
f 2064 2049 2080
f 2081 2083 2084 2082
f 2083 2085 2086 2084
f 2085 2087 2088 2086
f 2087 2089 2090 2088
f 2089 2091 2092 2090
f 2091 2093 2094 2092
f 2093 2095 2096 2094
f 2095 2097 2098 2096
f 2097 2099 2100 2098
f 2099 2101 2102 2100
f 2101 2103 2104 2102
f 2103 2081 2082 2104
f 2103 2101 2099 2097 2095 2093 2091 2089 2087 2085 2083 2081
f 2082 2084 2086 2088 2090 2092 2094 2096 2098 2100 2102 2104
f 2105 2107 2108 2106
f 2107 2109 2110 2108
f 2109 2111 2112 2110
f 2111 2113 2114 2112
f 2113 2115 2116 2114
f 2115 2117 2118 2116
f 2117 2119 2120 2118
f 2119 2121 2122 2120
f 2121 2123 2124 2122
f 2123 2125 2126 2124
f 2125 2127 2128 2126
f 2127 2105 2106 2128
f 2127 2125 2123 2121 2119 2117 2115 2113 2111 2109 2107 2105
f 2106 2108 2110 2112 2114 2116 2118 2120 2122 2124 2126 2128
f 2129 2131 2132 2130
f 2131 2133 2134 2132
f 2133 2135 2136 2134
f 2135 2137 2138 2136
f 2137 2139 2140 2138
f 2139 2141 2142 2140
f 2141 2143 2144 2142
f 2143 2145 2146 2144
f 2145 2147 2148 2146
f 2147 2149 2150 2148
f 2149 2151 2152 2150
f 2151 2129 2130 2152
f 2151 2149 2147 2145 2143 2141 2139 2137 2135 2133 2131 2129
f 2130 2132 2134 2136 2138 2140 2142 2144 2146 2148 2150 2152
f 2153 2155 2156 2154
f 2155 2157 2158 2156
f 2157 2159 2160 2158
f 2159 2161 2162 2160
f 2161 2163 2164 2162
f 2163 2165 2166 2164
f 2165 2167 2168 2166
f 2167 2169 2170 2168
f 2169 2171 2172 2170
f 2171 2173 2174 2172
f 2173 2175 2176 2174
f 2175 2153 2154 2176
f 2175 2173 2171 2169 2167 2165 2163 2161 2159 2157 2155 2153
f 2154 2156 2158 2160 2162 2164 2166 2168 2170 2172 2174 2176
